<svg width="37" height="37" viewBox="0 0 37 37" fill="none" xmlns="http://www.w3.org/2000/svg">
<path d="M18.5 37C28.7173 37 37 28.7173 37 18.5C37 8.28273 28.7173 0 18.5 0C8.28273 0 0 8.28273 0 18.5C0 28.7173 8.28273 37 18.5 37Z" fill="#039BE5"/>
<path d="M8.46484 18.0992L26.3019 11.2219C27.1298 10.9228 27.8528 11.4238 27.5846 12.6757L27.5861 12.6741L24.5491 26.9823C24.324 27.9967 23.7212 28.2434 22.8779 27.7655L18.2529 24.3569L16.0221 26.506C15.7754 26.7526 15.5673 26.9607 15.0894 26.9607L15.4178 22.254L23.9894 14.5102C24.3625 14.1819 23.9062 13.9969 23.4144 14.3237L12.8216 20.9929L8.25518 19.5684C7.26388 19.2539 7.2423 18.5772 8.46484 18.0992Z" fill="white"/>
</svg>
