<svg width="40" height="40" viewBox="0 0 40 40" fill="none" xmlns="http://www.w3.org/2000/svg">
<path d="M0 40L2.75859 30C0.965547 26.8966 0 23.4483 0 19.862C0 8.96555 8.96555 0 19.931 0C30.8965 0 40 8.96555 40 19.862C40 30.7585 30.8966 40 19.931 40C16.4827 40 13.1724 38.8966 10.2069 37.2414L0 40Z" fill="#EDEDED"/>
<path d="M10.7586 33.6551L11.3793 34C13.931 35.5861 16.8965 36.5517 20 36.5517C29.0344 36.5517 36.5517 29.0344 36.5517 19.862C36.5517 10.6896 29.0344 3.44824 19.931 3.44824C10.8275 3.44824 3.44824 10.7586 3.44824 19.862C3.44824 23.0344 4.3448 26.1378 5.99996 28.7586L6.41379 29.3793L4.82762 35.1724L10.7586 33.6551Z" fill="#55CD6C"/>
<path d="M14.6209 10.6207L13.3106 10.5518C12.8968 10.5518 12.483 10.6897 12.2072 10.9656C11.5865 11.5173 10.552 12.5518 10.2761 13.9311C9.79341 16.0001 10.552 18.4829 12.3451 20.9656C14.1383 23.4483 17.5865 27.4483 23.6554 29.1725C25.5865 29.7242 27.1037 29.3793 28.3451 28.6207C29.3107 28 29.9313 27.0346 30.1383 26L30.3451 25.0345C30.4141 24.7586 30.2761 24.4138 30.0003 24.2759L25.6554 22.2759C25.3796 22.1379 25.0347 22.2069 24.8279 22.4828L23.1037 24.6896C22.9658 24.8276 22.7589 24.8965 22.552 24.8276C21.3796 24.4138 17.4486 22.7586 15.3106 18.6207C15.2416 18.4139 15.2416 18.2069 15.3796 18.069L17.0347 16.207C17.1727 16.0001 17.2416 15.7243 17.1727 15.5173L15.1727 11.0346C15.1036 10.8276 14.8968 10.6207 14.6209 10.6207Z" fill="#FEFEFE"/>
</svg>
