<svg width="99" height="43" viewBox="0 0 99 43" fill="none" xmlns="http://www.w3.org/2000/svg">
<path d="M15.6562 26.5391L23.3906 0.875H31.2188L19.3359 35H12L0.164062 0.875H7.96875L15.6562 26.5391ZM52.9697 35H45.9384V0.875H52.9697V35ZM77.58 22.9766V35H70.5488V0.875H83.8613C86.4238 0.875 88.6738 1.34375 90.6113 2.28125C92.5644 3.21875 94.0644 4.55469 95.1113 6.28906C96.1581 8.00781 96.6816 9.96875 96.6816 12.1719C96.6816 15.5156 95.5331 18.1562 93.2363 20.0938C90.955 22.0156 87.7909 22.9766 83.7441 22.9766H77.58ZM77.58 17.2812H83.8613C85.7206 17.2812 87.1347 16.8438 88.1034 15.9688C89.0878 15.0938 89.58 13.8438 89.58 12.2188C89.58 10.5469 89.0878 9.19531 88.1034 8.16406C87.1191 7.13281 85.7597 6.60156 84.0253 6.57031H77.58V17.2812Z" fill="white"/>
<path d="M0 39.6875H98.4628V42.0312H0V39.6875Z" fill="white"/>
</svg>
