<svg width="48" height="54" viewBox="0 0 48 54" fill="none" xmlns="http://www.w3.org/2000/svg">
<mask id="path-1-inside-1" fill="white">
<path d="M45.1812 4.25185C45.2188 4.77294 45.2126 5.30287 45.161 5.96502L45.0772 6.83094L44.9491 7.87115L44.6145 10.3825L44.5676 10.8103L44.5142 11.5565L44.5103 11.7305L44.6144 11.8621C46.5004 14.3365 47.5877 17.1612 47.7334 20.1244L47.7503 20.8105C47.7503 25.8955 45.4145 30.7597 41.2811 33.8597C39.7063 35.0408 37.8437 35.9893 35.757 36.7034C36.1637 37.6429 36.4045 38.5725 36.4704 39.4918L36.489 40.0077V50.824C36.489 52.2048 35.3697 53.324 33.989 53.324C32.7069 53.324 31.6502 52.3589 31.5058 51.1156L31.489 50.824V40.0077C31.489 39.2008 31.0112 38.0748 29.9421 36.6716L29.899 36.6142C29.8011 36.4779 29.7163 36.3307 29.6466 36.1739C29.6213 36.1175 29.5984 36.0606 29.5777 36.0032C29.5671 35.9722 29.5564 35.9404 29.5463 35.9082C29.5247 35.8416 29.5069 35.7757 29.4919 35.7094C29.4896 35.6959 29.4863 35.6805 29.4831 35.6652L29.4733 35.6194C29.4632 35.5654 29.4549 35.5112 29.4483 35.4569L29.4831 35.6652C29.4588 35.5485 29.4431 35.432 29.4356 35.3163C29.4329 35.2757 29.4313 35.2347 29.4307 35.1938C29.4295 35.1308 29.431 35.0675 29.4347 35.0047C29.4373 34.97 29.4401 34.9365 29.4435 34.9031C29.4488 34.8455 29.4568 34.787 29.4669 34.729C29.4748 34.6863 29.4832 34.6446 29.4926 34.6031C29.5029 34.5557 29.5153 34.5079 29.529 34.4607C29.5416 34.4177 29.5554 34.3744 29.5703 34.3316C29.5867 34.2849 29.6041 34.2398 29.6226 34.1953C29.6413 34.1495 29.6624 34.1028 29.6849 34.0567C29.7022 34.0227 29.7196 33.9892 29.7377 33.9561C29.7645 33.9056 29.7937 33.8564 29.8246 33.8081C29.8448 33.7779 29.8658 33.7466 29.8875 33.7158C29.9216 33.6663 29.9575 33.6191 29.9953 33.573C30.1171 33.4247 30.2567 33.2888 30.4116 33.1702C30.4119 33.1706 30.4137 33.1692 30.4155 33.1679L30.4502 33.1412C30.5205 33.0895 30.5938 33.0413 30.6699 32.9969L30.4155 33.1679C30.5084 33.0971 30.6047 33.0338 30.7036 32.9779C30.7702 32.94 30.8407 32.9045 30.9132 32.8723C30.9569 32.8527 31.001 32.8345 31.0454 32.8177C31.0924 32.8003 31.1402 32.7839 31.1888 32.7689C31.2353 32.7539 31.2827 32.7407 31.3303 32.7289C31.3607 32.7221 31.3913 32.7151 31.422 32.7087C34.2014 32.1311 36.5483 31.1592 38.2811 29.8597C41.1311 27.7222 42.7503 24.3503 42.7503 20.8105C42.7503 18.577 41.9136 16.4135 40.3177 14.4909C39.6228 13.6537 39.4675 12.7835 39.5119 11.4919L39.5484 10.8211L39.6102 10.1343L40.0253 6.95805L38.9593 7.53239C36.0121 9.08705 34.1239 9.75591 32.255 9.34659L31.8812 9.2503C29.7958 8.6328 27.5558 8.31056 25.2503 8.31056C23.5777 8.31056 21.939 8.48012 20.3675 8.80958L19.433 9.02637C16.9881 9.64902 15.2937 9.09662 12.1755 7.26959L10.9853 6.55805L10.9591 7.02407L10.9376 7.67692L10.9251 8.64934L10.9207 10.6444L10.9047 11.4748L10.8829 11.9352C10.8096 13.1765 10.6737 13.8809 10.0739 14.624C8.54842 16.5139 7.75026 18.6286 7.75026 20.8105C7.75026 24.131 9.59148 27.5972 12.6081 29.8596C14.6174 31.3665 17.2355 32.4015 20.3394 32.9227L20.4598 32.9454C20.4984 32.9538 20.5369 32.9631 20.5751 32.9734L20.3394 32.9227C20.4799 32.9463 20.6156 32.9812 20.7459 33.0262C20.7814 33.0381 20.8172 33.0514 20.8526 33.0656C20.9037 33.0863 20.9541 33.1083 21.0036 33.1319C21.0471 33.1525 21.0902 33.1747 21.1328 33.1982C21.2606 33.2687 21.3816 33.3502 21.4942 33.4411C21.532 33.4719 21.5697 33.5041 21.6066 33.5376L21.7905 33.7233C21.7968 33.7304 21.8032 33.7376 21.8095 33.7448L21.6066 33.5376C21.7157 33.6367 21.814 33.7433 21.9014 33.8558C21.9269 33.8895 21.9523 33.9241 21.9768 33.9592C22.0089 34.004 22.0385 34.0497 22.0666 34.0961C22.0899 34.1362 22.1136 34.1779 22.136 34.2203C22.1565 34.2576 22.1746 34.2942 22.1919 34.3312C22.2132 34.3781 22.2344 34.4274 22.254 34.4773C22.2735 34.5266 22.2907 34.575 22.3063 34.6238C22.317 34.6572 22.3275 34.6923 22.3372 34.7277C22.3531 34.7867 22.3668 34.8451 22.3783 34.9038C22.3874 34.9478 22.395 34.9927 22.4014 35.038C22.4068 35.08 22.4117 35.1217 22.4154 35.1634C22.421 35.2201 22.4241 35.2777 22.4253 35.3356C22.4258 35.376 22.4257 35.4162 22.4246 35.4563C22.4229 35.5202 22.4186 35.5845 22.4118 35.6491C22.4088 35.6798 22.4052 35.7091 22.4011 35.7383C22.3979 35.7586 22.3945 35.7804 22.3909 35.8022L22.3675 35.9255C22.3602 35.9588 22.3522 35.992 22.3435 36.025L22.3909 35.8022C22.3673 35.9427 22.3324 36.0784 22.2873 36.2087C22.2754 36.244 22.2621 36.2797 22.248 36.3152C22.2228 36.3779 22.1954 36.4392 22.1658 36.499C22.153 36.5248 22.1393 36.5513 22.1251 36.5775C22.0303 36.7529 21.9159 36.9142 21.7851 37.0594L21.7759 37.0691C20.8292 38.1111 20.3625 38.9828 20.2704 39.6769L20.2533 39.9288V50.824C20.2533 52.2048 19.134 53.324 17.7533 53.324C16.4712 53.324 15.4145 52.3589 15.2701 51.1156L15.2533 50.824L15.2525 46.4558L12.5316 46.4582C10.133 46.4582 8.02451 45.1385 6.05913 42.9818C4.89861 41.7084 4.07199 40.5086 3.11239 38.9259C3.00329 38.7459 2.88547 38.6504 2.64858 38.5957L2.44685 38.5616C1.07635 38.394 0.101169 37.1471 0.268734 35.7766C0.424329 34.504 1.51054 33.5723 2.76222 33.5798L3.05366 33.5985C4.92167 33.8269 6.43835 34.7672 7.38804 36.3338C9.08849 39.1386 10.9195 41.203 12.2818 41.4362L12.5316 41.4582L15.2525 41.4558L15.2533 39.9288C15.2533 38.9371 15.4668 37.9595 15.879 36.9949C13.5228 36.2585 11.4146 35.2144 9.60812 33.8597C5.36707 30.6788 2.75026 25.7527 2.75026 20.8105C2.75026 17.6702 3.80588 14.6641 5.75245 12.04L5.87276 11.883L5.90797 11.2858L5.92079 10.5979L5.92516 8.61938L5.92877 8.16541C5.94988 6.24653 6.0519 4.93304 6.34696 3.83362C6.9672 1.52263 8.76305 -0.0128438 11.2372 1.05025C11.6217 1.21544 12.0109 1.40582 12.4233 1.62691L12.8313 1.8505L13.5158 2.24751L14.598 2.89345L15.391 3.34622C16.848 4.14802 17.5684 4.34163 18.199 4.18103C20.4552 3.60641 22.8281 3.31056 25.2503 3.31056C28.0346 3.31056 30.7528 3.70159 33.3008 4.45604C33.3333 4.46568 33.3897 4.46417 33.4687 4.45107L33.7724 4.37654C33.834 4.35817 33.9009 4.3368 33.9729 4.31237L34.4668 4.12858C34.5591 4.09168 34.6563 4.05161 34.7583 4.00831L35.4262 3.70935L36.201 3.33034C36.3387 3.26035 36.4805 3.18692 36.6264 3.10999L39.3953 1.61554L40.1325 1.24188C40.2476 1.18572 40.3595 1.13227 40.4696 1.08102C43.2118 -0.196472 44.9994 1.73426 45.1812 4.25185Z"/>
</mask>
<path d="M45.1812 4.25185C45.2188 4.77294 45.2126 5.30287 45.161 5.96502L45.0772 6.83094L44.9491 7.87115L44.6145 10.3825L44.5676 10.8103L44.5142 11.5565L44.5103 11.7305L44.6144 11.8621C46.5004 14.3365 47.5877 17.1612 47.7334 20.1244L47.7503 20.8105C47.7503 25.8955 45.4145 30.7597 41.2811 33.8597C39.7063 35.0408 37.8437 35.9893 35.757 36.7034C36.1637 37.6429 36.4045 38.5725 36.4704 39.4918L36.489 40.0077V50.824C36.489 52.2048 35.3697 53.324 33.989 53.324C32.7069 53.324 31.6502 52.3589 31.5058 51.1156L31.489 50.824V40.0077C31.489 39.2008 31.0112 38.0748 29.9421 36.6716L29.899 36.6142C29.8011 36.4779 29.7163 36.3307 29.6466 36.1739C29.6213 36.1175 29.5984 36.0606 29.5777 36.0032C29.5671 35.9722 29.5564 35.9404 29.5463 35.9082C29.5247 35.8416 29.5069 35.7757 29.4919 35.7094C29.4896 35.6959 29.4863 35.6805 29.4831 35.6652L29.4733 35.6194C29.4632 35.5654 29.4549 35.5112 29.4483 35.4569L29.4831 35.6652C29.4588 35.5485 29.4431 35.432 29.4356 35.3163C29.4329 35.2757 29.4313 35.2347 29.4307 35.1938C29.4295 35.1308 29.431 35.0675 29.4347 35.0047C29.4373 34.97 29.4401 34.9365 29.4435 34.9031C29.4488 34.8455 29.4568 34.787 29.4669 34.729C29.4748 34.6863 29.4832 34.6446 29.4926 34.6031C29.5029 34.5557 29.5153 34.5079 29.529 34.4607C29.5416 34.4177 29.5554 34.3744 29.5703 34.3316C29.5867 34.2849 29.6041 34.2398 29.6226 34.1953C29.6413 34.1495 29.6624 34.1028 29.6849 34.0567C29.7022 34.0227 29.7196 33.9892 29.7377 33.9561C29.7645 33.9056 29.7937 33.8564 29.8246 33.8081C29.8448 33.7779 29.8658 33.7466 29.8875 33.7158C29.9216 33.6663 29.9575 33.6191 29.9953 33.573C30.1171 33.4247 30.2567 33.2888 30.4116 33.1702C30.4119 33.1706 30.4137 33.1692 30.4155 33.1679L30.4502 33.1412C30.5205 33.0895 30.5938 33.0413 30.6699 32.9969L30.4155 33.1679C30.5084 33.0971 30.6047 33.0338 30.7036 32.9779C30.7702 32.94 30.8407 32.9045 30.9132 32.8723C30.9569 32.8527 31.001 32.8345 31.0454 32.8177C31.0924 32.8003 31.1402 32.7839 31.1888 32.7689C31.2353 32.7539 31.2827 32.7407 31.3303 32.7289C31.3607 32.7221 31.3913 32.7151 31.422 32.7087C34.2014 32.1311 36.5483 31.1592 38.2811 29.8597C41.1311 27.7222 42.7503 24.3503 42.7503 20.8105C42.7503 18.577 41.9136 16.4135 40.3177 14.4909C39.6228 13.6537 39.4675 12.7835 39.5119 11.4919L39.5484 10.8211L39.6102 10.1343L40.0253 6.95805L38.9593 7.53239C36.0121 9.08705 34.1239 9.75591 32.255 9.34659L31.8812 9.2503C29.7958 8.6328 27.5558 8.31056 25.2503 8.31056C23.5777 8.31056 21.939 8.48012 20.3675 8.80958L19.433 9.02637C16.9881 9.64902 15.2937 9.09662 12.1755 7.26959L10.9853 6.55805L10.9591 7.02407L10.9376 7.67692L10.9251 8.64934L10.9207 10.6444L10.9047 11.4748L10.8829 11.9352C10.8096 13.1765 10.6737 13.8809 10.0739 14.624C8.54842 16.5139 7.75026 18.6286 7.75026 20.8105C7.75026 24.131 9.59148 27.5972 12.6081 29.8596C14.6174 31.3665 17.2355 32.4015 20.3394 32.9227L20.4598 32.9454C20.4984 32.9538 20.5369 32.9631 20.5751 32.9734L20.3394 32.9227C20.4799 32.9463 20.6156 32.9812 20.7459 33.0262C20.7814 33.0381 20.8172 33.0514 20.8526 33.0656C20.9037 33.0863 20.9541 33.1083 21.0036 33.1319C21.0471 33.1525 21.0902 33.1747 21.1328 33.1982C21.2606 33.2687 21.3816 33.3502 21.4942 33.4411C21.532 33.4719 21.5697 33.5041 21.6066 33.5376L21.7905 33.7233C21.7968 33.7304 21.8032 33.7376 21.8095 33.7448L21.6066 33.5376C21.7157 33.6367 21.814 33.7433 21.9014 33.8558C21.9269 33.8895 21.9523 33.9241 21.9768 33.9592C22.0089 34.004 22.0385 34.0497 22.0666 34.0961C22.0899 34.1362 22.1136 34.1779 22.136 34.2203C22.1565 34.2576 22.1746 34.2942 22.1919 34.3312C22.2132 34.3781 22.2344 34.4274 22.254 34.4773C22.2735 34.5266 22.2907 34.575 22.3063 34.6238C22.317 34.6572 22.3275 34.6923 22.3372 34.7277C22.3531 34.7867 22.3668 34.8451 22.3783 34.9038C22.3874 34.9478 22.395 34.9927 22.4014 35.038C22.4068 35.08 22.4117 35.1217 22.4154 35.1634C22.421 35.2201 22.4241 35.2777 22.4253 35.3356C22.4258 35.376 22.4257 35.4162 22.4246 35.4563C22.4229 35.5202 22.4186 35.5845 22.4118 35.6491C22.4088 35.6798 22.4052 35.7091 22.4011 35.7383C22.3979 35.7586 22.3945 35.7804 22.3909 35.8022L22.3675 35.9255C22.3602 35.9588 22.3522 35.992 22.3435 36.025L22.3909 35.8022C22.3673 35.9427 22.3324 36.0784 22.2873 36.2087C22.2754 36.244 22.2621 36.2797 22.248 36.3152C22.2228 36.3779 22.1954 36.4392 22.1658 36.499C22.153 36.5248 22.1393 36.5513 22.1251 36.5775C22.0303 36.7529 21.9159 36.9142 21.7851 37.0594L21.7759 37.0691C20.8292 38.1111 20.3625 38.9828 20.2704 39.6769L20.2533 39.9288V50.824C20.2533 52.2048 19.134 53.324 17.7533 53.324C16.4712 53.324 15.4145 52.3589 15.2701 51.1156L15.2533 50.824L15.2525 46.4558L12.5316 46.4582C10.133 46.4582 8.02451 45.1385 6.05913 42.9818C4.89861 41.7084 4.07199 40.5086 3.11239 38.9259C3.00329 38.7459 2.88547 38.6504 2.64858 38.5957L2.44685 38.5616C1.07635 38.394 0.101169 37.1471 0.268734 35.7766C0.424329 34.504 1.51054 33.5723 2.76222 33.5798L3.05366 33.5985C4.92167 33.8269 6.43835 34.7672 7.38804 36.3338C9.08849 39.1386 10.9195 41.203 12.2818 41.4362L12.5316 41.4582L15.2525 41.4558L15.2533 39.9288C15.2533 38.9371 15.4668 37.9595 15.879 36.9949C13.5228 36.2585 11.4146 35.2144 9.60812 33.8597C5.36707 30.6788 2.75026 25.7527 2.75026 20.8105C2.75026 17.6702 3.80588 14.6641 5.75245 12.04L5.87276 11.883L5.90797 11.2858L5.92079 10.5979L5.92516 8.61938L5.92877 8.16541C5.94988 6.24653 6.0519 4.93304 6.34696 3.83362C6.9672 1.52263 8.76305 -0.0128438 11.2372 1.05025C11.6217 1.21544 12.0109 1.40582 12.4233 1.62691L12.8313 1.8505L13.5158 2.24751L14.598 2.89345L15.391 3.34622C16.848 4.14802 17.5684 4.34163 18.199 4.18103C20.4552 3.60641 22.8281 3.31056 25.2503 3.31056C28.0346 3.31056 30.7528 3.70159 33.3008 4.45604C33.3333 4.46568 33.3897 4.46417 33.4687 4.45107L33.7724 4.37654C33.834 4.35817 33.9009 4.3368 33.9729 4.31237L34.4668 4.12858C34.5591 4.09168 34.6563 4.05161 34.7583 4.00831L35.4262 3.70935L36.201 3.33034C36.3387 3.26035 36.4805 3.18692 36.6264 3.10999L39.3953 1.61554L40.1325 1.24188C40.2476 1.18572 40.3595 1.13227 40.4696 1.08102C43.2118 -0.196472 44.9994 1.73426 45.1812 4.25185Z" fill="white" stroke="#252837" stroke-width="2" mask="url(#path-1-inside-1)"/>
</svg>
