<svg width="64" height="64" viewBox="0 0 64 64" fill="none" xmlns="http://www.w3.org/2000/svg">
<path fill-rule="evenodd" clip-rule="evenodd" d="M11 2C9.47875 2 8.19831 3.03512 8.02056 4.40861L2.02056 50.7723C1.92047 51.5457 2.1889 52.3212 2.75819 52.9032C2.97382 53.1237 3.22481 53.3084 3.5 53.4528V59.2727C3.5 60.779 4.84314 62 6.5 62H15.5C16.9665 62 18.2181 61.0361 18.4592 59.7211L19.5745 53.6373C20.2823 53.3903 20.8751 52.9036 21.2112 52.2584L32 31.5527L42.7888 52.2584C43.1249 52.9036 43.7177 53.3903 44.4255 53.6373L45.5408 59.7211C45.7819 61.0361 47.0335 62 48.5 62H57.5C59.1568 62 60.5 60.779 60.5 59.2727V53.4528C60.7752 53.3084 61.0262 53.1237 61.2418 52.9032C61.8111 52.3212 62.0795 51.5457 61.9794 50.7723L55.9794 4.40861C55.8017 3.03512 54.5212 2 53 2H11ZM55.6264 48.3636L50.3322 7.45455H36.9995L40.6469 13.6717C41.4266 15.0007 40.8735 16.6527 39.4116 17.3615C37.9497 18.0703 36.1325 17.5675 35.3528 16.2385L31.9998 10.5233L28.6469 16.2385C27.8672 17.5675 26.05 18.0703 24.5881 17.3615C23.1262 16.6527 22.5731 15.0007 23.3528 13.6717L27.0002 7.45455H13.6678L8.37364 48.3636H16.6015L29.2888 24.0143C29.7851 23.0618 30.8407 22.4545 32 22.4545C33.1593 22.4545 34.2149 23.0618 34.7112 24.0143L47.3985 48.3636H55.6264Z" fill="white" stroke="#252837" stroke-width="3" stroke-linecap="round" stroke-linejoin="round"/>
</svg>
