<svg width="58" height="48" viewBox="0 0 58 48" fill="none" xmlns="http://www.w3.org/2000/svg">
<path fill-rule="evenodd" clip-rule="evenodd" d="M29.6063 1.57464C29.2082 1.47512 28.7918 1.47512 28.3937 1.57464L3.39366 7.82464C2.28074 8.10287 1.5 9.10283 1.5 10.25C1.5 11.3972 2.28074 12.3971 3.39366 12.6754L5.25 13.1394V34H4C2.61929 34 1.5 35.1193 1.5 36.5V44C1.5 45.3807 2.61929 46.5 4 46.5H11.5C12.8807 46.5 14 45.3807 14 44V36.5C14 35.1193 12.8807 34 11.5 34H10.25V14.3894L12.75 15.0144V26.4633C12.75 27.3376 13.2068 28.1484 13.9545 28.6014C16.1172 25.032 13.957 28.6029 13.957 28.6029L13.9601 28.6048L13.9681 28.6096L13.9908 28.6232L14.0636 28.6659C14.124 28.7011 14.2082 28.7495 14.3149 28.809C14.5283 28.9281 14.8323 29.0924 15.217 29.2866C15.9852 29.6745 17.0819 30.1852 18.4272 30.6946C21.0994 31.7065 24.8483 32.75 29 32.75C33.1517 32.75 36.9006 31.7065 39.5728 30.6946C40.9181 30.1852 42.0148 29.6745 42.783 29.2866C43.1677 29.0924 43.4717 28.9281 43.6851 28.809C43.7918 28.7495 43.876 28.7011 43.9364 28.6659L44.0092 28.6232L44.0319 28.6096L44.043 28.6029L44.0455 28.6014C44.7932 28.1484 45.25 27.3376 45.25 26.4633V15.0144L54.6063 12.6754C55.7193 12.3971 56.5 11.3972 56.5 10.25C56.5 9.10283 55.7193 8.10287 54.6063 7.82464L29.6063 1.57464ZM44.0455 28.6014C42.7372 26.4421 42.6704 26.3318 44.0455 28.6014ZM6.5 39V41.5H9V39H6.5ZM40.25 16.2644L29.6063 18.9254C29.2082 19.0249 28.7918 19.0249 28.3937 18.9254L17.75 16.2644V24.9621C18.3694 25.2652 19.2017 25.6414 20.1978 26.0186C22.5256 26.9001 25.6517 27.75 29 27.75C32.3483 27.75 35.4744 26.9001 37.8022 26.0186C38.7983 25.6414 39.6306 25.2652 40.25 24.9621V16.2644ZM29 13.9231L14.3078 10.25L29 6.57694L43.6922 10.25L29 13.9231Z" fill="white"/>
<path d="M6.5 39V41.5H9V39H6.5Z" fill="white"/>
<path d="M44.0455 28.6014L44.043 28.6029L44.0319 28.6096L44.0092 28.6232L43.9364 28.6659C43.876 28.7011 43.7918 28.7495 43.6851 28.809C43.4717 28.9281 43.1677 29.0924 42.783 29.2866C42.0148 29.6745 40.9181 30.1852 39.5728 30.6946C36.9006 31.7065 33.1517 32.75 29 32.75C24.8483 32.75 21.0994 31.7065 18.4272 30.6946C17.0819 30.1852 15.9852 29.6745 15.217 29.2866C14.8323 29.0924 14.5283 28.9281 14.3149 28.809C14.2082 28.7495 14.124 28.7011 14.0636 28.6659L13.9908 28.6232L13.9681 28.6096L13.9601 28.6048L13.957 28.6029C13.957 28.6029 16.1172 25.032 13.9545 28.6014C13.2068 28.1484 12.75 27.3376 12.75 26.4633V15.0144L10.25 14.3894V34H11.5C12.8807 34 14 35.1193 14 36.5V44C14 45.3807 12.8807 46.5 11.5 46.5H4C2.61929 46.5 1.5 45.3807 1.5 44V36.5C1.5 35.1193 2.61929 34 4 34H5.25V13.1394L3.39366 12.6754C2.28074 12.3971 1.5 11.3972 1.5 10.25C1.5 9.10283 2.28074 8.10287 3.39366 7.82464L28.3937 1.57464C28.7918 1.47512 29.2082 1.47512 29.6063 1.57464L54.6063 7.82464C55.7193 8.10287 56.5 9.10283 56.5 10.25C56.5 11.3972 55.7193 12.3971 54.6063 12.6754L45.25 15.0144V26.4633C45.25 27.3376 44.7932 28.1484 44.0455 28.6014ZM44.0455 28.6014C42.6704 26.3318 42.7372 26.4421 44.0455 28.6014ZM6.5 39V41.5H9V39H6.5ZM29.6063 18.9254L40.25 16.2644V24.9621C39.6306 25.2652 38.7983 25.6414 37.8022 26.0186C35.4744 26.9001 32.3483 27.75 29 27.75C25.6517 27.75 22.5256 26.9001 20.1978 26.0186C19.2017 25.6414 18.3694 25.2652 17.75 24.9621V16.2644L28.3937 18.9254C28.7918 19.0249 29.2082 19.0249 29.6063 18.9254ZM14.3078 10.25L29 13.9231L43.6922 10.25L29 6.57694L14.3078 10.25Z" stroke="#252837" stroke-width="2" stroke-linecap="round" stroke-linejoin="round"/>
</svg>
