<svg width="60" height="60" viewBox="0 0 60 60" fill="none" xmlns="http://www.w3.org/2000/svg">
<path d="M7.5 5.0166C4.73968 5.0166 2.5 7.25354 2.5 10.0154V43.7666C2.5 45.1473 3.61929 46.2666 5 46.2666H15C16.3807 46.2666 17.5 45.1473 17.5 43.7666C17.5 42.3859 16.3807 41.2666 15 41.2666H7.5V10.0166H52.5V41.2666H45C43.6193 41.2666 42.5 42.3859 42.5 43.7666C42.5 45.1473 43.6193 46.2666 45 46.2666H55C56.3807 46.2666 57.5 45.1473 57.5 43.7666V10.0154C57.5 7.25357 55.2604 5.0166 52.5 5.0166H7.5Z" fill="white"/>
<path fill-rule="evenodd" clip-rule="evenodd" d="M31.7678 38.2319C30.7915 37.2556 29.2086 37.2556 28.2323 38.2319L15.7323 50.7319C15.0173 51.4469 14.8034 52.5222 15.1904 53.4564C15.5773 54.3906 16.4889 54.9997 17.5001 54.9997H42.5001C43.5112 54.9997 44.4228 54.3906 44.8098 53.4564C45.1967 52.5222 44.9828 51.4469 44.2678 50.7319L31.7678 38.2319ZM36.4645 49.9997H23.5356L30.0001 43.5352L36.4645 49.9997Z" fill="white"/>
<path d="M7.5 5.0166C4.73968 5.0166 2.5 7.25354 2.5 10.0154V43.7666C2.5 45.1473 3.61929 46.2666 5 46.2666H15C16.3807 46.2666 17.5 45.1473 17.5 43.7666C17.5 42.3859 16.3807 41.2666 15 41.2666H7.5V10.0166H52.5V41.2666H45C43.6193 41.2666 42.5 42.3859 42.5 43.7666C42.5 45.1473 43.6193 46.2666 45 46.2666H55C56.3807 46.2666 57.5 45.1473 57.5 43.7666V10.0154C57.5 7.25357 55.2604 5.0166 52.5 5.0166H7.5Z" stroke="#252837" stroke-width="2" stroke-linejoin="round"/>
<path fill-rule="evenodd" clip-rule="evenodd" d="M31.7678 38.2319C30.7915 37.2556 29.2086 37.2556 28.2323 38.2319L15.7323 50.7319C15.0173 51.4469 14.8034 52.5222 15.1904 53.4564C15.5773 54.3906 16.4889 54.9997 17.5001 54.9997H42.5001C43.5112 54.9997 44.4228 54.3906 44.8098 53.4564C45.1967 52.5222 44.9828 51.4469 44.2678 50.7319L31.7678 38.2319ZM36.4645 49.9997H23.5356L30.0001 43.5352L36.4645 49.9997Z" stroke="#252837" stroke-width="2" stroke-linejoin="round"/>
</svg>
