<svg width="53" height="45" viewBox="0 0 53 45" fill="none" xmlns="http://www.w3.org/2000/svg">
<path d="M15 14.25H15.5V13.75V11.25C15.5 10.1454 16.3954 9.25 17.5 9.25C18.6046 9.25 19.5 10.1454 19.5 11.25V13.75V14.25H20H22.5C23.6046 14.25 24.5 15.1454 24.5 16.25C24.5 17.3546 23.6046 18.25 22.5 18.25H20H19.5V18.75V21.25C19.5 22.3546 18.6046 23.25 17.5 23.25C16.3954 23.25 15.5 22.3546 15.5 21.25V18.75V18.25H15H12.5C11.3954 18.25 10.5 17.3546 10.5 16.25C10.5 15.1454 11.3954 14.25 12.5 14.25H15ZM22.5 32H22V32.5V33.75C22 39.6871 17.1871 44.5 11.25 44.5C5.31294 44.5 0.5 39.6871 0.5 33.75V16.25C0.5 7.55152 7.55152 0.5 16.25 0.5H36.25C44.9485 0.5 52 7.55151 52 16.25V33.75C52 39.6871 47.1871 44.5 41.25 44.5C35.3129 44.5 30.5 39.6871 30.5 33.75V32.5V32H30H22.5ZM5.3462 27.6153L4.5 26.8033V27.9761V33.75C4.5 37.4779 7.52208 40.5 11.25 40.5C14.9779 40.5 18 37.4779 18 33.75V32.5V32H17.5H16.25C12.0179 32 8.17657 30.3315 5.3462 27.6153ZM35 32H34.5V32.5V33.75C34.5 37.4779 37.5221 40.5 41.25 40.5C44.9779 40.5 48 37.4779 48 33.75V27.9761V26.8033L47.1538 27.6153C44.3234 30.3315 40.4821 32 36.25 32H35ZM38.75 11.75C39.8546 11.75 40.75 12.6454 40.75 13.75C40.75 14.8546 39.8546 15.75 38.75 15.75C37.6454 15.75 36.75 14.8546 36.75 13.75C36.75 12.6454 37.6454 11.75 38.75 11.75ZM33.75 18C34.8546 18 35.75 18.8954 35.75 20C35.75 21.1046 34.8546 22 33.75 22C32.6454 22 31.75 21.1046 31.75 20C31.75 18.8954 32.6454 18 33.75 18ZM16.25 4.5C9.76065 4.5 4.5 9.76065 4.5 16.25C4.5 22.7393 9.76065 28 16.25 28H36.25C42.7393 28 48 22.7393 48 16.25C48 9.76065 42.7393 4.5 36.25 4.5H16.25Z" fill="white" stroke="#252837"/>
</svg>
