<svg width="57" height="57" viewBox="0 0 57 57" fill="none" xmlns="http://www.w3.org/2000/svg">
<path fill-rule="evenodd" clip-rule="evenodd" d="M24.2085 6.36919L24.434 6.54959C24.6763 6.74342 24.8378 7.02039 24.8871 7.32644L27.6855 24.6765C27.9365 26.2328 29.28 27.3758 30.855 27.3758C32.5085 27.3758 33.8912 26.12 34.0505 24.4747L35.7107 7.31894C35.7433 6.98265 35.9105 6.67402 36.174 6.46323L36.3056 6.35791C36.4311 6.52828 36.5 6.73536 36.5 6.94949V31.3362C36.5 34.3034 39.7822 36.0947 42.2777 34.4908L47.8666 30.8979C48.2698 30.6387 48.7391 30.5008 49.2185 30.5008H49.6081L40.1262 46.4705C40.0316 46.5614 39.8871 46.694 39.6912 46.8561C39.2406 47.229 38.5199 47.7569 37.511 48.2949C35.506 49.3643 32.314 50.5008 27.75 50.5008C23.0211 50.5008 19.8308 49.712 17.8093 48.8331C16.7975 48.3932 16.0912 47.9365 15.6283 47.5554C15.3971 47.365 15.2351 47.2003 15.1279 47.0743C15.0867 47.0259 15.0561 46.9861 15.034 46.9555L8.91839 29.2202L7.66352 22.9459L9.99347 27.9942C10.8166 29.7773 12.8759 30.6233 14.7147 29.9341L14.8774 29.8731C15.9711 29.4631 16.6352 28.3506 16.4769 27.1933L14.4004 12.0085L18.9738 25.2207C19.4203 26.5102 20.6352 27.3758 22.0004 27.3758C23.8502 27.3758 25.3156 25.8133 25.1966 23.9669L24.0929 6.86155C24.0818 6.68801 24.1229 6.51684 24.2085 6.36919ZM42.125 48.0008C44.0064 49.6471 44.0046 49.6492 44.0046 49.6492L44.0026 49.6515L43.9983 49.6563L43.9885 49.6674L43.9637 49.695C43.9449 49.7157 43.9215 49.7411 43.8935 49.7709C43.8375 49.8303 43.7629 49.9072 43.6695 49.999C43.4828 50.1825 43.2202 50.4258 42.8791 50.7081C42.1969 51.2726 41.1988 51.9948 39.864 52.7067C37.1815 54.1374 33.186 55.5008 27.75 55.5008C22.4789 55.5008 18.5859 54.6229 15.8157 53.4185C13.13 52.2508 11.293 50.6768 10.514 49.1189C10.4649 49.0208 10.4223 48.9195 10.3866 48.8158L4.13657 30.6908C4.09997 30.5847 4.07057 30.4762 4.04855 30.3661L1.60049 18.1259C1.5337 17.7918 1.5 17.4517 1.5 17.111V16.9098C1.5 12.7122 6.95987 11.0855 9.25734 14.5982M42.125 48.0008L44.0064 49.6471C44.1069 49.5322 44.1967 49.4084 44.2746 49.2772L55.0285 31.1653C56.5127 28.6656 54.7112 25.5008 51.8041 25.5008H49.2185C47.7804 25.5008 46.3726 25.9143 45.1629 26.692L41.5 29.0467V6.94949C41.5 5.35884 40.8681 3.8334 39.7434 2.70871C38.0025 0.967904 35.2311 0.814377 33.3087 2.35229L33.0508 2.5587C31.7323 3.61352 30.8967 5.15702 30.734 6.83709L30.4111 10.1743L29.8234 6.53067C29.5764 4.99915 28.7686 3.61417 27.5575 2.64524L27.1319 2.30477C25.2432 0.793924 22.5206 0.944729 20.8104 2.65483C19.6169 3.84851 18.9947 5.49854 19.1033 7.18333L19.3512 11.0256L18.5591 8.73727C18.1863 7.66034 17.5 6.71962 16.5885 6.03596L16.4221 5.91116C14.4632 4.442 11.6839 4.8388 10.2147 6.79782C9.36234 7.93455 8.99193 9.3617 9.18441 10.7697L9.87234 15.8001L9.6187 15.2506C9.51468 15.0252 9.39361 14.8066 9.25734 14.5982" fill="white"/>
<path d="M23.6986 23.5849L22.0004 24.1731L22.6994 24.128M50.7292 28.6126L51.8041 29.2508M24.2085 6.36919L24.434 6.54959C24.6763 6.74342 24.8378 7.02039 24.8871 7.32644L27.6855 24.6765C27.9365 26.2328 29.28 27.3758 30.855 27.3758C32.5085 27.3758 33.8912 26.12 34.0505 24.4747L35.7107 7.31894C35.7433 6.98265 35.9105 6.67402 36.174 6.46323L36.3056 6.35791C36.4311 6.52828 36.5 6.73536 36.5 6.94949V31.3362C36.5 34.3034 39.7822 36.0947 42.2777 34.4908L47.8666 30.8979C48.2698 30.6387 48.7391 30.5008 49.2185 30.5008H49.6081L40.1262 46.4705C40.0316 46.5614 39.8871 46.694 39.6912 46.8561C39.2406 47.229 38.5199 47.7569 37.511 48.2949C35.506 49.3643 32.314 50.5008 27.75 50.5008C23.0211 50.5008 19.8308 49.712 17.8093 48.8331C16.7975 48.3932 16.0912 47.9365 15.6283 47.5554C15.3971 47.365 15.2351 47.2003 15.1279 47.0743C15.0867 47.0259 15.0561 46.9861 15.034 46.9555L8.91839 29.2202L7.66352 22.9459L9.99347 27.9942C10.8166 29.7773 12.8759 30.6233 14.7147 29.9341L14.8774 29.8731C15.9711 29.4631 16.6352 28.3506 16.4769 27.1933L14.4004 12.0085L18.9738 25.2207C19.4203 26.5102 20.6352 27.3758 22.0004 27.3758C23.8502 27.3758 25.3156 25.8133 25.1966 23.9669L24.0929 6.86155C24.0818 6.68801 24.1229 6.51684 24.2085 6.36919ZM44.0046 49.6492C44.0046 49.6492 44.0064 49.6471 42.125 48.0008L44.0064 49.6471C44.1069 49.5322 44.1967 49.4084 44.2746 49.2772L55.0285 31.1653C56.5127 28.6656 54.7112 25.5008 51.8041 25.5008H49.2185C47.7804 25.5008 46.3726 25.9143 45.1629 26.692L41.5 29.0467V6.94949C41.5 5.35884 40.8681 3.8334 39.7434 2.70871C38.0025 0.967904 35.2311 0.814377 33.3087 2.35229L33.0508 2.5587C31.7323 3.61352 30.8967 5.15702 30.734 6.83709L30.4111 10.1743L29.8234 6.53067C29.5764 4.99914 28.7686 3.61417 27.5575 2.64524L27.1319 2.30477C25.2432 0.793924 22.5206 0.944729 20.8104 2.65483C19.6169 3.84851 18.9947 5.49854 19.1033 7.18333L19.3512 11.0256L18.5591 8.73727C18.1863 7.66034 17.5 6.71962 16.5885 6.03596L16.4221 5.91116C14.4632 4.442 11.6839 4.8388 10.2147 6.79782C9.36234 7.93455 8.99193 9.3617 9.18441 10.7697L9.87234 15.8001L9.6187 15.2506C9.51468 15.0252 9.39361 14.8066 9.25734 14.5982C6.95987 11.0855 1.5 12.7122 1.5 16.9098V17.111C1.5 17.4517 1.5337 17.7918 1.60049 18.1259L4.04855 30.3661C4.07057 30.4762 4.09997 30.5847 4.13657 30.6908L10.3866 48.8158C10.4223 48.9195 10.4649 49.0208 10.514 49.1189C11.293 50.6768 13.13 52.2508 15.8157 53.4185C18.5859 54.6229 22.4789 55.5008 27.75 55.5008C33.186 55.5008 37.1815 54.1374 39.864 52.7067C41.1988 51.9948 42.1969 51.2726 42.8791 50.7081C43.2202 50.4257 43.4828 50.1825 43.6695 49.999C43.7629 49.9072 43.8375 49.8303 43.8935 49.7709C43.9215 49.7411 43.9449 49.7157 43.9637 49.695L43.9885 49.6674L43.9983 49.6563L44.0026 49.6515L44.0046 49.6492Z" stroke="#252837" stroke-width="2" stroke-linecap="round" stroke-linejoin="round"/>
</svg>
