<svg width="56" height="56" viewBox="0 0 56 56" fill="none" xmlns="http://www.w3.org/2000/svg">
<path d="M36.0966 38.2712L36.2054 37.8831C36.5697 36.584 36.3922 35.273 35.55 34.15C34.9627 33.3669 33.7405 32.4435 32.1156 31.4939C30.4995 30.5494 28.5137 29.5952 26.4292 28.7424C22.2493 27.0325 17.7193 25.75 15 25.75C10.0695 25.75 4.84992 28.7181 0.90901 32.659C0.0303301 33.5377 0.0303301 34.9623 0.90901 35.841C1.78769 36.7197 3.21231 36.7197 4.09099 35.841C5.66596 34.266 7.51516 32.8711 9.40552 31.8688C11.2933 30.8678 13.2379 30.25 15 30.25H15.008L15.008 30.2501L15.3984 30.2626L15.4055 30.2628L15.4055 30.2629C17.0495 30.3619 19.5305 31.0255 22.0614 31.9063L22.0643 31.9073L22.0643 31.9073L23.4459 32.4076L23.4488 32.4087C24.1414 32.6691 24.8291 32.942 25.4963 33.2206L25.4991 33.2218L26.7959 33.7822L26.7988 33.7835C28.8984 34.7233 30.6853 35.6894 31.5479 36.4345L31.5564 36.4419L31.5562 36.442L31.7242 36.6008L31.8472 36.717L31.785 36.8744L31.7665 36.9211L31.7615 36.9337L31.7552 36.9457C31.5389 37.3564 31.0976 37.8927 30.5146 38.4479C30.2415 38.7081 29.966 38.9486 29.7076 39.1608L29.6008 39.2485L29.4698 39.2047L23.2183 37.1177L22.9506 37.0453C21.8504 36.8189 20.7295 37.4463 20.3655 38.5385C19.9725 39.7174 20.6096 40.9916 21.7885 41.3845L29.2945 43.8866C29.3847 43.9163 29.4766 43.9403 29.5715 43.9588L29.5921 43.9627C29.5921 43.9627 29.5922 43.9627 29.5922 43.9627M36.0966 38.2712L29.8144 44.2431C29.7239 44.2364 29.6349 44.2248 29.5468 44.2086L29.5922 43.9627M36.0966 38.2712L36.4926 38.1962L41.1143 37.321L41.1167 37.3206L45.3692 36.5576M36.0966 38.2712L45.3692 36.5576M29.5922 43.9627C29.6715 43.9774 29.7515 43.9877 29.8329 43.9938L29.833 43.9938C29.8702 43.9966 29.9079 43.9984 29.945 43.9995M29.5922 43.9627L29.945 43.9995M45.3692 36.5576L45.3716 36.5572L46.6144 36.3466L46.6173 36.3462L48.7106 36.0173L49.9263 35.8546L50.5633 35.7876C50.564 35.7875 50.5647 35.7874 50.5654 35.7874C50.8489 35.7622 51.0765 35.75 51.25 35.75C52.5944 35.75 53.5729 36.0833 54.2373 36.6132C54.8992 37.1412 55.273 37.883 55.3768 38.7495C55.5858 40.4956 54.6914 42.7406 52.841 44.591C50.0577 47.3743 46.6591 50.0425 43.1082 52.0134C39.5544 53.986 35.8665 55.25 32.5 55.25C29.2994 55.25 26.6721 54.729 23.0344 53.5647C23.034 53.5646 23.0337 53.5645 23.0334 53.5644L20.0239 52.5739L20.022 52.5733L19.1969 52.3093L19.1969 52.3093L19.1932 52.3081L18.1702 51.9983L18.1702 51.9983L18.164 51.9965L17.5983 51.8411L17.5983 51.8409L17.5887 51.8387L16.8687 51.6714L16.8688 51.671L16.8554 51.6687L16.4344 51.5947L16.4345 51.5943L16.4219 51.5928L16.0267 51.5437L16.0267 51.5434L16.0142 51.5425L15.6263 51.5141L15.6263 51.5139L15.6157 51.5136L15.2168 51.5014L15.2169 51.5013H15.2093L2.50003 51.5C1.25736 51.5 0.25 50.4926 0.25 49.25C0.25 48.0987 1.11491 47.1491 2.23027 47.016L2.50717 47L15.3053 47.0015L15.8507 47.0145L16.3625 47.0442L16.8612 47.0947L17.3683 47.1702L17.9052 47.2753L18.4927 47.4146L19.1511 47.5927L19.898 47.8132L19.9024 47.8146L21.2368 48.2359L21.2398 48.2369L23.524 48.9905C23.5242 48.9905 23.5244 48.9906 23.5246 48.9906C27.2202 50.2225 29.6121 50.75 32.5 50.75C35.1216 50.75 38.2332 49.5876 41.2641 47.8521C44.3011 46.1132 47.2856 43.7824 49.659 41.409C49.8375 41.2305 49.9953 41.0565 50.1329 40.8912L50.1331 40.8913L50.139 40.8837L50.2207 40.7774L50.5992 40.2852L49.9852 40.3778L48.3785 40.6201L48.3785 40.6201L48.3743 40.6208L45.4976 41.1048L45.4943 41.1054L40.1035 42.0862L40.1018 42.0865L37.8936 42.5041L37.8923 42.5043L30.4483 43.9549L30.2027 43.9908C30.1707 43.9937 30.1387 43.9959 30.1066 43.9975L30.1053 43.9975L45.3692 36.5576ZM49.7833 40.9139C49.6909 41.0174 49.5906 41.1239 49.4822 41.2322C44.7647 45.9498 37.6143 50.5 32.5 50.5C29.6501 50.5 27.287 49.9813 23.6031 48.7533L21.3151 47.9985L19.9732 47.5748L19.2192 47.3521L18.5542 47.1723L17.958 47.0309L17.4107 46.9237L16.8922 46.8465L16.3823 46.795L15.861 46.7647L15.3082 46.7515L2.5 46.75L2.20845 46.7668C0.9651 46.9112 0 47.9679 0 49.25C0 50.6307 1.11929 51.75 2.5 51.75L15.2093 51.7513L15.6081 51.7634L15.9959 51.7918L16.3911 51.8409L16.8121 51.9149L17.5321 52.0822L18.0977 52.2376L19.1207 52.5474L19.9458 52.8114L22.9572 53.8025C26.6111 54.972 29.2653 55.5 32.5 55.5C39.35 55.5 47.4228 50.3627 53.0178 44.7678C56.7887 40.9968 56.7887 35.5 51.25 35.5C51.0657 35.5 50.8293 35.513 50.5412 35.5385L49.8966 35.6064L48.6746 35.7698L46.5756 36.0997L49.7833 40.9139ZM49.7833 40.9139L50.0598 40.8722L50.0526 40.8243L50.0513 40.8163L50.0225 40.625L49.8243 40.4726L49.7455 40.575C49.7167 40.6097 49.6868 40.6448 49.6559 40.6803L48.4158 40.8673L45.5391 41.3514L40.1482 42.3322L37.9401 42.7497L30.4903 44.2015L49.7833 40.9139ZM29.945 43.9995C29.9449 43.9995 29.9447 43.9995 29.9445 43.9995L29.9381 44.2494L29.945 43.9995ZM40 24C39.1716 24 38.5 24.6716 38.5 25.5C38.5 26.3284 39.1716 27 40 27C40.8284 27 41.5 26.3284 41.5 25.5C41.5 24.6716 40.8284 24 40 24ZM39 25.5C39 24.9478 39.4478 24.5 40 24.5C40.5522 24.5 41 24.9478 41 25.5C41 26.0522 40.5522 26.5 40 26.5C39.4478 26.5 39 26.0522 39 25.5ZM25 15.25C24.1716 15.25 23.5 15.9216 23.5 16.75C23.5 17.5784 24.1716 18.25 25 18.25C25.8284 18.25 26.5 17.5784 26.5 16.75C26.5 15.9216 25.8284 15.25 25 15.25ZM24 16.75C24 16.1977 24.4477 15.75 25 15.75C25.5523 15.75 26 16.1977 26 16.75C26 17.3023 25.5523 17.75 25 17.75C24.4477 17.75 24 17.3023 24 16.75ZM40 5.25C39.1716 5.25 38.5 5.9216 38.5 6.75C38.5 7.5784 39.1716 8.25 40 8.25C40.8284 8.25 41.5 7.5784 41.5 6.75C41.5 5.9216 40.8284 5.25 40 5.25ZM39 6.75C39 6.19774 39.4478 5.75 40 5.75C40.5522 5.75 41 6.19774 41 6.75C41 7.30226 40.5522 7.75 40 7.75C39.4478 7.75 39 7.30226 39 6.75ZM40 19.5C43.3136 19.5 46 22.1864 46 25.5C46 28.8136 43.3136 31.5 40 31.5C36.6864 31.5 34 28.8136 34 25.5C34 22.1864 36.6864 19.5 40 19.5ZM25 10.75C28.3137 10.75 31 13.4363 31 16.75C31 20.0637 28.3137 22.75 25 22.75C21.6863 22.75 19 20.0637 19 16.75C19 13.4363 21.6863 10.75 25 10.75ZM40 0.75C43.3137 0.75 46 3.4363 46 6.75C46 10.0637 43.3137 12.75 40 12.75C36.6863 12.75 34 10.0637 34 6.75C34 3.4363 36.6863 0.75 40 0.75Z" fill="white" stroke="#252837" stroke-width="0.5"/>
</svg>
