<svg width="60" height="60" viewBox="0 0 60 60" fill="none" xmlns="http://www.w3.org/2000/svg">
<path d="M30.8163 55.8584L30.4926 55.7019L30.2019 55.9135C28.687 57.0166 26.4709 57.0114 23.8382 55.9578C21.224 54.9115 18.3356 52.8779 15.6399 50.1822C12.7906 47.3329 10.6832 44.2705 9.69733 41.5452C8.70814 38.8106 8.89071 36.5716 10.3314 35.1259L10.5007 34.965C11.9706 33.6416 14.2025 33.5225 16.9042 34.5343C19.5939 35.5415 22.5991 37.6252 25.3981 40.4241C27.0592 42.0853 28.4724 43.8232 29.5575 45.528L30.0758 46.3422L30.5766 45.5171C31.6912 43.6803 33.1976 41.7938 34.9946 39.9967C34.995 39.9963 34.9955 39.9958 34.9959 39.9954L35.2958 39.699C35.2963 39.6985 35.2967 39.698 35.2972 39.6976C38.1117 36.9489 41.1113 34.9315 43.7752 34.0022C46.4496 33.0692 48.6368 33.2716 50.0572 34.6921L50.4658 34.2835L50.0572 34.6921C51.5028 36.1375 51.687 38.3786 50.6966 41.1165C49.7107 43.8418 47.6033 46.9041 44.7539 49.7533L45.1782 50.1776L44.7539 49.7534C42.2334 52.2739 39.5427 54.2173 37.064 55.3146C34.5669 56.42 32.3947 56.6218 30.8163 55.8584ZM13.5061 37.6777L12.8747 37.6634L12.8928 38.2947L12.8963 38.4167L12.8961 38.4167L12.8968 38.4306L12.9096 38.676L12.9102 38.6885L12.9114 38.701C12.9662 39.2845 13.174 40.0083 13.5153 40.8047C14.4081 42.8877 16.1268 45.2952 18.3269 47.4952L18.7413 47.0808L18.3269 47.4952C20.527 49.6953 22.9344 51.4141 25.0174 52.3068C25.909 52.6889 26.7171 52.907 27.34 52.9243L27.34 52.9244L27.3473 52.9245L27.5344 52.9274L28.1551 52.9372L28.1437 52.3165L28.1403 52.1299L28.1401 52.1242C28.1227 51.5013 27.9047 50.6932 27.5226 49.8016C26.6299 47.7186 24.9111 45.3112 22.7111 43.1112L22.2868 43.5354L22.711 43.1111C20.5109 40.9111 18.1035 39.1923 16.0205 38.2996C15.1289 37.9174 14.3208 37.6994 13.6979 37.682L13.6947 37.6819L13.5061 37.6777ZM47.4999 37.8605L47.5122 37.2346L46.8863 37.2489L46.6989 37.2532L46.6959 37.2533C46.073 37.2707 45.2649 37.4887 44.3733 37.8708C42.2903 38.7635 39.8829 40.4823 37.6829 42.6824C35.4828 44.8824 33.764 47.2898 32.8713 49.3728C32.4892 50.2644 32.2712 51.0725 32.2538 51.6954L32.2538 51.6967L32.249 51.8833L32.2329 52.5084L32.8581 52.4987L33.0465 52.4957L33.0465 52.4958L33.0539 52.4956C33.6768 52.4782 34.4849 52.2602 35.3765 51.878C37.4595 50.9853 39.8668 49.2665 42.0669 47.0663C44.267 44.8663 45.9858 42.459 46.8786 40.3759C47.2607 39.4843 47.4787 38.6763 47.4961 38.0534L47.4962 38.0484L47.4999 37.8605ZM36.1403 10.6515L36.5167 11.1034L36.9761 10.736L41.3137 7.26637L41.3137 7.26635C42.5161 6.30446 44.2817 7.10063 44.3948 8.59436L44.4007 8.76047V21.25C44.4007 29.3712 38.1219 35.65 30.0006 35.65C21.8936 35.65 15.6813 29.3854 15.6813 21.2663L15.6813 21.2623L15.6 8.76237C15.6 8.76236 15.6 8.76235 15.6 8.76235C15.5897 7.1635 17.4383 6.26756 18.6869 7.26629L23.024 10.736L23.4832 11.1034L23.8597 10.6516L28.541 5.03365C29.3006 4.12214 30.7006 4.12212 31.4602 5.03357C31.4602 5.0336 31.4603 5.03362 31.4603 5.03365L36.1403 10.6515ZM30.461 9.76967L30 9.21637L29.539 9.76973L25.2103 14.9664C24.548 15.761 23.3718 15.8799 22.5639 15.2338C22.5639 15.2338 22.5638 15.2337 22.5638 15.2337L20.4074 13.5078L19.4241 12.7208L19.4325 13.9803L19.4813 21.25C19.4813 21.2507 19.4813 21.2514 19.4813 21.2521C19.4823 27.1746 23.8251 31.678 29.6641 31.8452L29.6641 31.8453L29.6727 31.8454L29.9921 31.8499L29.9921 31.85H30.0006C36.0232 31.85 40.6007 27.2725 40.6007 21.25L40.6 13.9499L40.5999 12.7008L39.6249 13.4817L37.4376 15.2337C36.6756 15.8432 35.5851 15.7721 34.9085 15.095L34.783 14.9567L30.461 9.76967Z" fill="white" stroke="#252837" stroke-width="1.2"/>
</svg>
