<svg width="56" height="45" viewBox="0 0 56 45" fill="none" xmlns="http://www.w3.org/2000/svg">
<path d="M12.5006 10.5H13.0006V10C13.0006 4.7533 17.2539 0.5 22.5006 0.5H33.7506C38.9973 0.5 43.2506 4.7533 43.2506 10V10.5H43.7506H50.0006C52.4859 10.5 54.5006 12.5147 54.5006 15V23.6983H54.5005L54.5007 23.7092C54.5013 23.7381 54.5013 23.767 54.5007 23.7957L54.5006 23.7957V23.8067V40C54.5006 42.4853 52.4859 44.5 50.0006 44.5H5.00059C2.51531 44.5 0.500591 42.4853 0.500591 40V23.8067H0.50071L0.500472 23.7957C0.499844 23.767 0.499841 23.7381 0.500472 23.7092L0.500591 23.7092V23.6983V15C0.500591 12.5147 2.51531 10.5 5.00059 10.5H12.5006ZM17.0006 10V10.5H17.5006H38.7506H39.2506V10C39.2506 6.96245 36.7881 4.5 33.7506 4.5H22.5006C19.463 4.5 17.0006 6.96245 17.0006 10ZM4.50059 40V40.5H5.00059H50.0006H50.5006V40V26.9525V26.3121L49.8793 26.4675L27.9857 31.9409C27.6672 32.0205 27.334 32.0205 27.0155 31.9409L5.12186 26.4675L4.50059 26.3121V26.9525V40ZM27.3793 27.9087L27.5006 27.939L27.6219 27.9087L50.1219 22.2837L50.5006 22.189V21.7987V15V14.5H50.0006H5.00059H4.50059V15V21.7987V22.189L4.87932 22.2837L27.3793 27.9087ZM30.1256 21.25C30.1256 22.6997 28.9503 23.875 27.5006 23.875C26.0509 23.875 24.8756 22.6997 24.8756 21.25C24.8756 19.8003 26.0509 18.625 27.5006 18.625C28.9503 18.625 30.1256 19.8003 30.1256 21.25Z" fill="white" stroke="#252837"/>
</svg>
