<svg width="64" height="64" viewBox="0 0 64 64" fill="none" xmlns="http://www.w3.org/2000/svg">
<path d="M22 39.8947C22 38.1507 23.2792 36.7368 24.8571 36.7368H29.1429V32C29.1429 30.2559 30.422 28.8421 32 28.8421C33.578 28.8421 34.8571 30.2559 34.8571 32V36.7368H39.1429C40.7208 36.7368 42 38.1507 42 39.8947C42 41.6388 40.7208 43.0526 39.1429 43.0526H34.8571V47.7895C34.8571 49.5335 33.578 50.9474 32 50.9474C30.422 50.9474 29.1429 49.5335 29.1429 47.7895V43.0526H24.8571C23.2792 43.0526 22 41.6388 22 39.8947Z" fill="white"/>
<path fill-rule="evenodd" clip-rule="evenodd" d="M17.7143 2C16.1363 2 14.8571 3.41384 14.8571 5.15789V17.7895H7.71429C4.5584 17.7895 2 20.6171 2 24.1053L2.00004 55.6842C2.00004 59.1724 4.55843 62 7.71431 62H56.2857C59.4417 62 62 59.1724 62 55.6842V24.1053C62 20.6171 59.4417 17.7895 56.2857 17.7895H49.1429V5.15789C49.1429 3.41384 47.8637 2 46.2857 2H17.7143ZM43.4286 17.7895V8.31579H20.5714V17.7895H43.4286ZM7.71429 24.1053L7.71433 55.6842L56.2857 55.6842V24.1053H7.71429Z" fill="white"/>
<path d="M22 39.8947C22 38.1507 23.2792 36.7368 24.8571 36.7368H29.1429V32C29.1429 30.2559 30.422 28.8421 32 28.8421C33.578 28.8421 34.8571 30.2559 34.8571 32V36.7368H39.1429C40.7208 36.7368 42 38.1507 42 39.8947C42 41.6388 40.7208 43.0526 39.1429 43.0526H34.8571V47.7895C34.8571 49.5335 33.578 50.9474 32 50.9474C30.422 50.9474 29.1429 49.5335 29.1429 47.7895V43.0526H24.8571C23.2792 43.0526 22 41.6388 22 39.8947Z" stroke="#252837" stroke-width="3" stroke-linecap="round"/>
<path fill-rule="evenodd" clip-rule="evenodd" d="M17.7143 2C16.1363 2 14.8571 3.41384 14.8571 5.15789V17.7895H7.71429C4.5584 17.7895 2 20.6171 2 24.1053L2.00004 55.6842C2.00004 59.1724 4.55843 62 7.71431 62H56.2857C59.4417 62 62 59.1724 62 55.6842V24.1053C62 20.6171 59.4417 17.7895 56.2857 17.7895H49.1429V5.15789C49.1429 3.41384 47.8637 2 46.2857 2H17.7143ZM43.4286 17.7895V8.31579H20.5714V17.7895H43.4286ZM7.71429 24.1053L7.71433 55.6842L56.2857 55.6842V24.1053H7.71429Z" stroke="#252837" stroke-width="3" stroke-linecap="round"/>
</svg>
