<svg width="56" height="46" viewBox="0 0 56 46" fill="none" xmlns="http://www.w3.org/2000/svg">
<path d="M17.2642 11.2521L17.637 11.2521L39.25 11.25L39.2616 11.25L39.2616 11.2501L39.7911 11.2624L39.8027 11.2626L39.8027 11.2628C46.0356 11.5516 51 16.696 51 23C51 29.4893 45.7393 34.75 39.25 34.75H9.035H7.82766L8.68149 33.8964L10.6533 31.9251L10.84 31.7137C11.4402 30.9299 11.3813 29.8029 10.6642 29.0858C9.88316 28.3047 8.61683 28.3047 7.83579 29.0858L1.58579 35.3358L1.23261 34.9826L1.58578 35.3358C1.52996 35.3916 1.47652 35.4516 1.41852 35.5253L1.41833 35.5255C1.41813 35.5258 1.41793 35.526 1.41773 35.5263L1.41755 35.5265L1.41628 35.5284L1.41172 35.5343C1.36896 35.5901 1.32884 35.6484 1.29151 35.7091M17.2642 11.2521L1.29151 35.7091M17.2642 11.2521L17.1578 11.6094C16.1429 15.0165 12.9858 17.5 9.25 17.5C4.69365 17.5 1 13.8063 1 9.25C1 4.69365 4.69365 1 9.25 1C12.9867 1 16.1443 3.48463 17.1585 6.89301L17.2649 7.25041L17.6378 7.25041L39.25 7.25C47.9484 7.25 55 14.3016 55 23C55 31.5078 48.254 38.4403 39.8196 38.7399L39.2455 38.75H9.0375H7.83124L8.68377 39.6034L10.664 41.5856L10.6642 41.5858C11.3813 42.3029 11.4402 43.4299 10.84 44.2137M17.2642 11.2521L10.84 44.2137M1.29151 35.7091C1.29157 35.7091 1.29162 35.709 1.29168 35.7089L0.864989 35.4482L1.291 35.71C1.29117 35.7097 1.29134 35.7094 1.29151 35.7091ZM9.035 34.25V33.75H9.53513L9.035 34.25ZM9.035 34.25L9.38851 34.6036L9.7422 34.25H9.035ZM10.84 44.2137L10.6538 44.4245C9.93621 45.1319 8.81629 45.1873 8.03634 44.59L7.82481 44.4032L1.59639 38.1748L1.41513 37.9704C1.4075 37.9605 1.39998 37.9506 1.39257 37.9406C1.35652 37.8917 1.32296 37.8419 1.29183 37.791L1.29025 37.7884C1.27649 37.7662 1.26288 37.7428 1.2493 37.7183C1.22728 37.6783 1.20639 37.6373 1.18706 37.596L1.1868 37.5954C1.17118 37.5621 1.15635 37.5278 1.14242 37.4929L1.14225 37.4925C1.12656 37.4533 1.11235 37.4143 1.09934 37.3747C1.08953 37.3443 1.08019 37.3132 1.07173 37.2825L1.07123 37.2807C1.05962 37.239 1.04945 37.1967 1.04058 37.1533C1.03342 37.1172 1.02723 37.082 1.02207 37.0473L1.02178 37.0455C1.01619 37.009 1.01153 36.9702 1.00798 36.9302L0.509944 36.9745M10.84 44.2137L1.02261 38.2801C1.01185 38.2663 1.00126 38.2523 0.990836 38.2383C0.946225 38.1778 0.904297 38.1157 0.865169 38.0517C0.846517 38.0215 0.828747 37.991 0.811678 37.9602C0.784485 37.9107 0.758442 37.8597 0.734134 37.8077C0.714198 37.7652 0.695491 37.722 0.678064 37.6783C0.658289 37.6289 0.640306 37.5795 0.623867 37.5293C0.611822 37.4921 0.600244 37.4537 0.589613 37.415C0.574584 37.3611 0.561599 37.3069 0.550413 37.252C0.541755 37.2084 0.53407 37.1649 0.527545 37.1212C0.520252 37.0736 0.51437 37.0242 0.509944 36.9745M0.509944 36.9745C0.504737 36.915 0.501587 36.8567 0.500465 36.7984C0.500225 36.786 0.500079 36.7735 0.500024 36.7611L0.999507 36.7722L1.00003 36.7605M0.509944 36.9745L1.00804 36.9309C1.00379 36.8823 1.00127 36.8354 1.00037 36.7888L1.00037 36.7887C1.00019 36.7793 1.00008 36.7699 1.00003 36.7605M1.00003 36.7605L1.00899 36.5587" fill="white" stroke="#252837"/>
</svg>
