<svg width="58" height="52" viewBox="0 0 58 52" fill="none" xmlns="http://www.w3.org/2000/svg">
<path d="M17.7499 29.75C16.3692 29.75 15.2499 30.8693 15.2499 32.25C15.2499 33.6307 16.3692 34.75 17.7499 34.75H40.2499C41.6306 34.75 42.7499 33.6307 42.7499 32.25C42.7499 30.8693 41.6306 29.75 40.2499 29.75H17.7499Z" fill="white"/>
<path d="M17.7499 41C17.7499 39.6193 18.8692 38.5 20.2499 38.5H37.7499C39.1306 38.5 40.2499 39.6193 40.2499 41C40.2499 42.3807 39.1306 43.5 37.7499 43.5H20.2499C18.8692 43.5 17.7499 42.3807 17.7499 41Z" fill="white"/>
<path fill-rule="evenodd" clip-rule="evenodd" d="M28.9999 1C24.8258 1 21.671 4.2193 19.7082 8.01407C17.9011 11.5079 16.7672 16.0512 16.5415 21H7.40922L6.9809 17.3976C6.89248 16.654 7.47328 16 8.22216 16H11.4999C12.8806 16 13.9999 14.8807 13.9999 13.5C13.9999 12.1193 12.8806 11 11.4999 11H8.22216C4.47786 11 1.57379 14.2698 2.01587 17.9879L5.41666 46.5903C5.71572 49.1057 7.8486 51 10.3817 51H48.3416C50.9165 51 53.0701 49.0447 53.3184 46.4819L56.0902 17.8523C56.4456 14.1797 53.559 11 49.8692 11H46.4999C45.1192 11 43.9999 12.1193 43.9999 13.5C43.9999 14.8807 45.1192 16 46.4999 16H49.8692C50.6071 16 51.1845 16.6358 51.1135 17.3705L50.7621 21H41.4582C41.2325 16.0512 40.0986 11.5079 38.2915 8.01407C36.3287 4.2193 33.1739 1 28.9999 1ZM36.4524 21C36.2301 16.7378 35.2448 13.0071 33.8504 10.3112C32.1939 7.10863 30.3487 6 28.9999 6C27.6511 6 25.8058 7.10863 24.1493 10.3112C22.7549 13.0071 21.7696 16.7378 21.5474 21H36.4524ZM8.00371 26L10.3817 46L48.3416 46L50.278 26H8.00371Z" fill="white"/>
<path d="M36.4524 21C36.2301 16.7378 35.2448 13.0071 33.8504 10.3112C32.1939 7.10863 30.3487 6 28.9999 6C27.6511 6 25.8058 7.10863 24.1493 10.3112C22.7549 13.0071 21.7696 16.7378 21.5474 21H36.4524Z" fill="white"/>
<path d="M17.7499 29.75C16.3692 29.75 15.2499 30.8693 15.2499 32.25C15.2499 33.6307 16.3692 34.75 17.7499 34.75H40.2499C41.6306 34.75 42.7499 33.6307 42.7499 32.25C42.7499 30.8693 41.6306 29.75 40.2499 29.75H17.7499Z" stroke="#252837" stroke-width="2" stroke-linecap="round" stroke-linejoin="round"/>
<path d="M17.7499 41C17.7499 39.6193 18.8692 38.5 20.2499 38.5H37.7499C39.1306 38.5 40.2499 39.6193 40.2499 41C40.2499 42.3807 39.1306 43.5 37.7499 43.5H20.2499C18.8692 43.5 17.7499 42.3807 17.7499 41Z" stroke="#252837" stroke-width="2" stroke-linecap="round" stroke-linejoin="round"/>
<path fill-rule="evenodd" clip-rule="evenodd" d="M28.9999 1C24.8258 1 21.671 4.2193 19.7082 8.01407C17.9011 11.5079 16.7672 16.0512 16.5415 21H7.40922L6.9809 17.3976C6.89248 16.654 7.47328 16 8.22216 16H11.4999C12.8806 16 13.9999 14.8807 13.9999 13.5C13.9999 12.1193 12.8806 11 11.4999 11H8.22216C4.47786 11 1.57379 14.2698 2.01587 17.9879L5.41666 46.5903C5.71572 49.1057 7.8486 51 10.3817 51H48.3416C50.9165 51 53.0701 49.0447 53.3184 46.4819L56.0902 17.8523C56.4456 14.1797 53.559 11 49.8692 11H46.4999C45.1192 11 43.9999 12.1193 43.9999 13.5C43.9999 14.8807 45.1192 16 46.4999 16H49.8692C50.6071 16 51.1845 16.6358 51.1135 17.3705L50.7621 21H41.4582C41.2325 16.0512 40.0986 11.5079 38.2915 8.01407C36.3287 4.2193 33.1739 1 28.9999 1ZM36.4524 21C36.2301 16.7378 35.2448 13.0071 33.8504 10.3112C32.1939 7.10863 30.3487 6 28.9999 6C27.6511 6 25.8058 7.10863 24.1493 10.3112C22.7549 13.0071 21.7696 16.7378 21.5474 21H36.4524ZM8.00371 26L10.3817 46L48.3416 46L50.278 26H8.00371Z" stroke="#252837" stroke-width="2" stroke-linecap="round" stroke-linejoin="round"/>
<path d="M36.4524 21C36.2301 16.7378 35.2448 13.0071 33.8504 10.3112C32.1939 7.10863 30.3487 6 28.9999 6C27.6511 6 25.8058 7.10863 24.1493 10.3112C22.7549 13.0071 21.7696 16.7378 21.5474 21H36.4524Z" stroke="#252837" stroke-width="2" stroke-linecap="round" stroke-linejoin="round"/>
</svg>
