<svg width="62" height="62" viewBox="0 0 62 62" fill="none" xmlns="http://www.w3.org/2000/svg">
<path d="M16 14.6364C16 13.1301 17.221 11.9091 18.7273 11.9091H21.4545C22.9608 11.9091 24.1818 13.1301 24.1818 14.6364C24.1818 16.1426 22.9608 17.3636 21.4545 17.3636H18.7273C17.221 17.3636 16 16.1426 16 14.6364Z" fill="white"/>
<path d="M18.7273 20.0909C17.221 20.0909 16 21.312 16 22.8182C16 24.3244 17.221 25.5455 18.7273 25.5455H21.4545C22.9608 25.5455 24.1818 24.3244 24.1818 22.8182C24.1818 21.312 22.9608 20.0909 21.4545 20.0909H18.7273Z" fill="white"/>
<path d="M26.9091 14.6364C26.9091 13.1301 28.1301 11.9091 29.6364 11.9091H32.3636C33.8699 11.9091 35.0909 13.1301 35.0909 14.6364C35.0909 16.1426 33.8699 17.3636 32.3636 17.3636H29.6364C28.1301 17.3636 26.9091 16.1426 26.9091 14.6364Z" fill="white"/>
<path d="M29.6364 20.0909C28.1301 20.0909 26.9091 21.312 26.9091 22.8182C26.9091 24.3244 28.1301 25.5455 29.6364 25.5455H32.3636C33.8699 25.5455 35.0909 24.3244 35.0909 22.8182C35.0909 21.312 33.8699 20.0909 32.3636 20.0909H29.6364Z" fill="white"/>
<path d="M37.8182 14.6364C37.8182 13.1301 39.0392 11.9091 40.5455 11.9091H43.2727C44.779 11.9091 46 13.1301 46 14.6364C46 16.1426 44.779 17.3636 43.2727 17.3636H40.5455C39.0392 17.3636 37.8182 16.1426 37.8182 14.6364Z" fill="white"/>
<path d="M40.5455 20.0909C39.0392 20.0909 37.8182 21.312 37.8182 22.8182C37.8182 24.3244 39.0392 25.5455 40.5455 25.5455H43.2727C44.779 25.5455 46 24.3244 46 22.8182C46 21.312 44.779 20.0909 43.2727 20.0909H40.5455Z" fill="white"/>
<path fill-rule="evenodd" clip-rule="evenodd" d="M1 3.72727C1 2.22104 2.22104 1 3.72727 1H58.2727C59.779 1 61 2.22104 61 3.72727C61 5.2335 59.779 6.45455 58.2727 6.45455H55.5455V55.5455H58.2727C59.779 55.5455 61 56.7665 61 58.2727C61 59.779 59.779 61 58.2727 61H3.72727C2.22104 61 1 59.779 1 58.2727C1 56.7665 2.22104 55.5455 3.72727 55.5455H6.45455V6.45455H3.72727C2.22104 6.45455 1 5.2335 1 3.72727ZM11.9091 6.45455H50.0909V55.5455H39.1818L39.1818 44.6364C41.2627 44.6364 43.6332 42.8158 43.0922 40.0329C42.0398 34.6243 36.7613 31 31 31C25.2387 31 19.9602 34.6238 18.9078 40.0325C18.3669 42.8153 20.7372 44.6364 22.8182 44.6364L22.8182 55.5455H11.9091V6.45455ZM36.8853 39.1818C35.7594 37.6422 33.6729 36.4545 31 36.4545C28.3271 36.4545 26.2405 37.6422 25.1147 39.1818H36.8853ZM33.7273 44.6364V55.5455H28.2727V44.6364H33.7273Z" fill="white"/>
<path d="M16 14.6364C16 13.1301 17.221 11.9091 18.7273 11.9091H21.4545C22.9608 11.9091 24.1818 13.1301 24.1818 14.6364C24.1818 16.1426 22.9608 17.3636 21.4545 17.3636H18.7273C17.221 17.3636 16 16.1426 16 14.6364Z" stroke="#252837" stroke-width="2" stroke-linecap="round" stroke-linejoin="round"/>
<path d="M18.7273 20.0909C17.221 20.0909 16 21.312 16 22.8182C16 24.3244 17.221 25.5455 18.7273 25.5455H21.4545C22.9608 25.5455 24.1818 24.3244 24.1818 22.8182C24.1818 21.312 22.9608 20.0909 21.4545 20.0909H18.7273Z" stroke="#252837" stroke-width="2" stroke-linecap="round" stroke-linejoin="round"/>
<path d="M26.9091 14.6364C26.9091 13.1301 28.1301 11.9091 29.6364 11.9091H32.3636C33.8699 11.9091 35.0909 13.1301 35.0909 14.6364C35.0909 16.1426 33.8699 17.3636 32.3636 17.3636H29.6364C28.1301 17.3636 26.9091 16.1426 26.9091 14.6364Z" stroke="#252837" stroke-width="2" stroke-linecap="round" stroke-linejoin="round"/>
<path d="M29.6364 20.0909C28.1301 20.0909 26.9091 21.312 26.9091 22.8182C26.9091 24.3244 28.1301 25.5455 29.6364 25.5455H32.3636C33.8699 25.5455 35.0909 24.3244 35.0909 22.8182C35.0909 21.312 33.8699 20.0909 32.3636 20.0909H29.6364Z" stroke="#252837" stroke-width="2" stroke-linecap="round" stroke-linejoin="round"/>
<path d="M37.8182 14.6364C37.8182 13.1301 39.0392 11.9091 40.5455 11.9091H43.2727C44.779 11.9091 46 13.1301 46 14.6364C46 16.1426 44.779 17.3636 43.2727 17.3636H40.5455C39.0392 17.3636 37.8182 16.1426 37.8182 14.6364Z" stroke="#252837" stroke-width="2" stroke-linecap="round" stroke-linejoin="round"/>
<path d="M40.5455 20.0909C39.0392 20.0909 37.8182 21.312 37.8182 22.8182C37.8182 24.3244 39.0392 25.5455 40.5455 25.5455H43.2727C44.779 25.5455 46 24.3244 46 22.8182C46 21.312 44.779 20.0909 43.2727 20.0909H40.5455Z" stroke="#252837" stroke-width="2" stroke-linecap="round" stroke-linejoin="round"/>
<path fill-rule="evenodd" clip-rule="evenodd" d="M1 3.72727C1 2.22104 2.22104 1 3.72727 1H58.2727C59.779 1 61 2.22104 61 3.72727C61 5.2335 59.779 6.45455 58.2727 6.45455H55.5455V55.5455H58.2727C59.779 55.5455 61 56.7665 61 58.2727C61 59.779 59.779 61 58.2727 61H3.72727C2.22104 61 1 59.779 1 58.2727C1 56.7665 2.22104 55.5455 3.72727 55.5455H6.45455V6.45455H3.72727C2.22104 6.45455 1 5.2335 1 3.72727ZM11.9091 6.45455H50.0909V55.5455H39.1818L39.1818 44.6364C41.2627 44.6364 43.6332 42.8158 43.0922 40.0329C42.0398 34.6243 36.7613 31 31 31C25.2387 31 19.9602 34.6238 18.9078 40.0325C18.3669 42.8153 20.7372 44.6364 22.8182 44.6364L22.8182 55.5455H11.9091V6.45455ZM36.8853 39.1818C35.7594 37.6422 33.6729 36.4545 31 36.4545C28.3271 36.4545 26.2405 37.6422 25.1147 39.1818H36.8853ZM33.7273 44.6364V55.5455H28.2727V44.6364H33.7273Z" stroke="#252837" stroke-width="2" stroke-linecap="round" stroke-linejoin="round"/>
</svg>
