<svg width="60" height="60" viewBox="0 0 60 60" fill="none" xmlns="http://www.w3.org/2000/svg">
<mask id="path-1-inside-1" fill="white">
<path d="M17.2035 39.6114C17.4827 37.1572 17.851 34.8971 18.32 32.868C19.0277 29.8062 20.0117 26.7661 21.2019 23.7976L21.2789 23.627C20.9786 23.5771 20.6661 23.5187 20.3377 23.4526L19.8185 23.3489L19.5379 23.7044C18.7113 24.7177 18.0274 25.2799 16.7972 25.6369L16.309 25.7617C14.5876 26.1483 13.5589 25.8847 11.7715 25.1192L11.811 25.135L11.9044 25.1745L11.3609 25.7669C10.9575 26.1859 10.5544 26.5447 10.0797 26.8826C8.6512 27.8993 6.93699 28.1024 4.97224 27.9191C1.75402 27.6193 -0.466168 25.145 0.0836778 22.469C1.02444 17.8906 4.71501 14.0093 11.9207 12.2546C12.5785 12.0944 13.2247 11.9558 13.8591 11.838L6.37717 7.61354C4.96785 6.81801 4.49555 5.26204 5.27981 3.99838C7.94982 -0.303702 17.9461 -1.05436 26.0558 1.36235C28.568 2.11097 30.3982 3.4263 31.6106 5.05832C32.8241 4.02911 34.1109 3.22923 35.3851 2.80197L36.0328 2.60129C41.9424 0.915828 49.9052 2.48769 52.8755 6.8018C53.8575 8.2282 53.1663 10.0538 51.3828 10.7439L43.0763 13.9544C44.8443 14.4893 46.5947 15.2223 48.3078 16.1762C54.196 19.4547 56.7734 23.783 56.9087 28.2554C57.0057 31.4247 53.5678 33.6589 49.938 33.0243C48.5153 32.7759 47.3471 32.4463 46.3864 31.9116C44.9243 31.0973 44.4203 30.2825 43.8081 28.6773L43.7644 28.5652L42.992 28.6175C41.5798 28.6903 40.6327 28.5934 39.5469 28.0831L39.0713 27.8384C37.6089 27.0241 37.105 26.2094 36.4927 24.6039L36.5048 24.6369L35.3865 24.8269C34.2301 24.9831 33.2604 24.9603 32.1667 24.6343C30.9765 24.2793 29.9935 23.5652 28.9018 22.4218C28.433 23.4222 27.9742 24.48 27.5323 25.5821C26.4319 28.3265 25.5246 31.1297 24.8766 33.9335C24.4519 35.7705 24.112 37.8566 23.8519 40.143C23.358 44.486 23.1882 49.0455 23.2179 53.1254L23.2321 54.0656C25.8624 54.2836 28.6949 54.4001 31.6161 54.4001C38.0753 54.4001 44.101 53.8303 48.4649 52.8546C50.2013 52.4663 51.5892 52.0303 52.5341 51.5969L52.9408 51.393L52.5206 51.1908L51.8658 50.9194C51.484 50.7726 51.0186 50.6113 50.4597 50.4452L49.9574 50.3018C46.4765 49.3478 41.2918 48.8003 34.9554 48.8003C33.1112 48.8003 31.6161 47.5467 31.6161 46.0004C31.6161 44.454 33.1112 43.2004 34.9554 43.2004C38.4554 43.2004 41.682 43.3486 44.5731 43.6472L46.267 43.8444C54.8055 44.9568 60 47.5194 60 51.6002C60 55.631 53.5987 58.2015 44.0934 59.3324L42.3316 59.5221L40.5059 59.6802C40.1965 59.7039 39.8847 59.7263 39.5704 59.7474L37.6569 59.8579L35.6905 59.9369C35.0266 59.9579 34.3547 59.9737 33.6754 59.9842L31.6161 60L29.5569 59.9842C28.8776 59.9737 28.2056 59.9579 27.5418 59.9369L25.5753 59.8579L23.6618 59.7474C23.3476 59.7263 23.0357 59.7039 22.7263 59.6802L20.9006 59.5221L19.1389 59.3324C9.63347 58.2015 3.23225 55.631 3.23225 51.6002C3.23225 49.7237 4.54715 48.2514 6.63596 47.1178C8.1842 46.2776 10.2516 46.6488 11.2537 47.947C12.1126 49.0597 11.91 50.4923 10.8597 51.408L10.6488 51.5722L10.6981 51.5969C11.508 51.9684 12.6434 52.3418 14.0448 52.6854L14.7673 52.8546C15.3288 52.9801 15.9179 53.0989 16.5318 53.2107L16.5391 51.3046C16.5658 47.5551 16.7591 43.5188 17.2035 39.6114ZM34.0519 18.4399L33.7032 18.4631L34.0724 18.859L34.4946 19.2723L35.5598 19.0833C37.5562 18.7463 38.7068 18.7906 40.2753 19.6639C41.7377 20.4782 42.2416 21.2929 42.8539 22.8983L42.8929 23.0074L43.67 22.958C45.0821 22.8851 46.0293 22.982 47.1151 23.4923L47.5907 23.7371C48.4681 24.2257 49.0005 24.7144 49.4183 25.374L49.6182 25.7177L49.5526 25.5653C48.8225 24.029 47.4665 22.567 45.2908 21.2363L44.6132 20.8411C41.1867 18.9332 37.5879 18.2508 34.0519 18.4399ZM23.6554 17.5402C21.1876 16.7447 17.9429 16.6194 13.7833 17.6323C11.4833 18.1924 9.83606 18.9953 8.69772 19.9801L8.50831 20.1514L8.72734 20.0303C9.02859 19.8771 9.35237 19.7469 9.7095 19.6378L10.2716 19.4899C11.8902 19.1262 12.8974 19.3378 14.4975 20.0007C14.5987 20.0426 14.7023 20.0863 14.8086 20.1319L14.4975 20.0007L14.4624 19.9859L14.8738 19.4968C15.4751 18.8185 16.0445 18.3766 16.8727 18.0676L17.3096 17.9237L17.7977 17.799C18.8779 17.5563 19.451 17.553 20.7591 17.7873L22.3388 18.0922C23.1489 18.2381 23.5434 18.2453 23.882 18.1506L23.7505 18.1722C23.8313 18.0134 23.9122 17.856 23.993 17.7001L24.0094 17.6647L23.6554 17.5402ZM23.8193 6.63887C20.8259 5.74683 17.4314 5.51033 14.9105 5.65756L14.8763 5.659L26.21 12.0593L26.3101 11.8598C26.4395 11.6008 26.5769 11.3409 26.7216 11.0808C26.7438 9.17465 25.9076 7.47516 24.2131 6.77793L23.8193 6.63887ZM42.9184 7.69368C41.2282 7.43599 39.3542 7.50208 37.8651 8.00144C36.8862 8.32966 35.6623 9.46178 34.5578 10.8351L34.2742 11.1973L43.2001 7.74215L42.9184 7.69368Z"/>
</mask>
<path d="M17.2035 39.6114C17.4827 37.1572 17.851 34.8971 18.32 32.868C19.0277 29.8062 20.0117 26.7661 21.2019 23.7976L21.2789 23.627C20.9786 23.5771 20.6661 23.5187 20.3377 23.4526L19.8185 23.3489L19.5379 23.7044C18.7113 24.7177 18.0274 25.2799 16.7972 25.6369L16.309 25.7617C14.5876 26.1483 13.5589 25.8847 11.7715 25.1192L11.811 25.135L11.9044 25.1745L11.3609 25.7669C10.9575 26.1859 10.5544 26.5447 10.0797 26.8826C8.6512 27.8993 6.93699 28.1024 4.97224 27.9191C1.75402 27.6193 -0.466168 25.145 0.0836778 22.469C1.02444 17.8906 4.71501 14.0093 11.9207 12.2546C12.5785 12.0944 13.2247 11.9558 13.8591 11.838L6.37717 7.61354C4.96785 6.81801 4.49555 5.26204 5.27981 3.99838C7.94982 -0.303702 17.9461 -1.05436 26.0558 1.36235C28.568 2.11097 30.3982 3.4263 31.6106 5.05832C32.8241 4.02911 34.1109 3.22923 35.3851 2.80197L36.0328 2.60129C41.9424 0.915828 49.9052 2.48769 52.8755 6.8018C53.8575 8.2282 53.1663 10.0538 51.3828 10.7439L43.0763 13.9544C44.8443 14.4893 46.5947 15.2223 48.3078 16.1762C54.196 19.4547 56.7734 23.783 56.9087 28.2554C57.0057 31.4247 53.5678 33.6589 49.938 33.0243C48.5153 32.7759 47.3471 32.4463 46.3864 31.9116C44.9243 31.0973 44.4203 30.2825 43.8081 28.6773L43.7644 28.5652L42.992 28.6175C41.5798 28.6903 40.6327 28.5934 39.5469 28.0831L39.0713 27.8384C37.6089 27.0241 37.105 26.2094 36.4927 24.6039L36.5048 24.6369L35.3865 24.8269C34.2301 24.9831 33.2604 24.9603 32.1667 24.6343C30.9765 24.2793 29.9935 23.5652 28.9018 22.4218C28.433 23.4222 27.9742 24.48 27.5323 25.5821C26.4319 28.3265 25.5246 31.1297 24.8766 33.9335C24.4519 35.7705 24.112 37.8566 23.8519 40.143C23.358 44.486 23.1882 49.0455 23.2179 53.1254L23.2321 54.0656C25.8624 54.2836 28.6949 54.4001 31.6161 54.4001C38.0753 54.4001 44.101 53.8303 48.4649 52.8546C50.2013 52.4663 51.5892 52.0303 52.5341 51.5969L52.9408 51.393L52.5206 51.1908L51.8658 50.9194C51.484 50.7726 51.0186 50.6113 50.4597 50.4452L49.9574 50.3018C46.4765 49.3478 41.2918 48.8003 34.9554 48.8003C33.1112 48.8003 31.6161 47.5467 31.6161 46.0004C31.6161 44.454 33.1112 43.2004 34.9554 43.2004C38.4554 43.2004 41.682 43.3486 44.5731 43.6472L46.267 43.8444C54.8055 44.9568 60 47.5194 60 51.6002C60 55.631 53.5987 58.2015 44.0934 59.3324L42.3316 59.5221L40.5059 59.6802C40.1965 59.7039 39.8847 59.7263 39.5704 59.7474L37.6569 59.8579L35.6905 59.9369C35.0266 59.9579 34.3547 59.9737 33.6754 59.9842L31.6161 60L29.5569 59.9842C28.8776 59.9737 28.2056 59.9579 27.5418 59.9369L25.5753 59.8579L23.6618 59.7474C23.3476 59.7263 23.0357 59.7039 22.7263 59.6802L20.9006 59.5221L19.1389 59.3324C9.63347 58.2015 3.23225 55.631 3.23225 51.6002C3.23225 49.7237 4.54715 48.2514 6.63596 47.1178C8.1842 46.2776 10.2516 46.6488 11.2537 47.947C12.1126 49.0597 11.91 50.4923 10.8597 51.408L10.6488 51.5722L10.6981 51.5969C11.508 51.9684 12.6434 52.3418 14.0448 52.6854L14.7673 52.8546C15.3288 52.9801 15.9179 53.0989 16.5318 53.2107L16.5391 51.3046C16.5658 47.5551 16.7591 43.5188 17.2035 39.6114ZM34.0519 18.4399L33.7032 18.4631L34.0724 18.859L34.4946 19.2723L35.5598 19.0833C37.5562 18.7463 38.7068 18.7906 40.2753 19.6639C41.7377 20.4782 42.2416 21.2929 42.8539 22.8983L42.8929 23.0074L43.67 22.958C45.0821 22.8851 46.0293 22.982 47.1151 23.4923L47.5907 23.7371C48.4681 24.2257 49.0005 24.7144 49.4183 25.374L49.6182 25.7177L49.5526 25.5653C48.8225 24.029 47.4665 22.567 45.2908 21.2363L44.6132 20.8411C41.1867 18.9332 37.5879 18.2508 34.0519 18.4399ZM23.6554 17.5402C21.1876 16.7447 17.9429 16.6194 13.7833 17.6323C11.4833 18.1924 9.83606 18.9953 8.69772 19.9801L8.50831 20.1514L8.72734 20.0303C9.02859 19.8771 9.35237 19.7469 9.7095 19.6378L10.2716 19.4899C11.8902 19.1262 12.8974 19.3378 14.4975 20.0007C14.5987 20.0426 14.7023 20.0863 14.8086 20.1319L14.4975 20.0007L14.4624 19.9859L14.8738 19.4968C15.4751 18.8185 16.0445 18.3766 16.8727 18.0676L17.3096 17.9237L17.7977 17.799C18.8779 17.5563 19.451 17.553 20.7591 17.7873L22.3388 18.0922C23.1489 18.2381 23.5434 18.2453 23.882 18.1506L23.7505 18.1722C23.8313 18.0134 23.9122 17.856 23.993 17.7001L24.0094 17.6647L23.6554 17.5402ZM23.8193 6.63887C20.8259 5.74683 17.4314 5.51033 14.9105 5.65756L14.8763 5.659L26.21 12.0593L26.3101 11.8598C26.4395 11.6008 26.5769 11.3409 26.7216 11.0808C26.7438 9.17465 25.9076 7.47516 24.2131 6.77793L23.8193 6.63887ZM42.9184 7.69368C41.2282 7.43599 39.3542 7.50208 37.8651 8.00144C36.8862 8.32966 35.6623 9.46178 34.5578 10.8351L34.2742 11.1973L43.2001 7.74215L42.9184 7.69368Z" fill="white"/>
<path d="M34.8689 18.4119L34.8577 17.662L34.8505 17.6621L34.8432 17.6623L34.8689 18.4119ZM34.8432 17.6623L34.0262 17.6903L34.0776 19.1894L34.8946 19.1614L34.8432 17.6623ZM44.9781 20.1859C41.6913 18.3557 38.2502 17.6113 34.8577 17.662L34.8801 19.1618C38.0309 19.1148 41.2093 19.8042 44.2484 21.4964L44.9781 20.1859ZM17.2035 39.6114L18.6939 39.7809L17.2035 39.6114ZM18.32 32.868L19.7815 33.2058L19.7815 33.2058L18.32 32.868ZM21.2019 23.7976L19.8345 23.1812L19.8215 23.21L19.8097 23.2394L21.2019 23.7976ZM21.2789 23.627L22.6463 24.2435L23.4475 22.4665L21.5246 22.1472L21.2789 23.627ZM20.3377 23.4526L20.6338 21.9821L20.6313 21.9816L20.3377 23.4526ZM19.8185 23.3489L20.112 21.878L19.2105 21.698L18.641 22.4197L19.8185 23.3489ZM19.5379 23.7044L20.7002 24.6526L20.7079 24.6432L20.7154 24.6337L19.5379 23.7044ZM16.7972 25.6369L17.1685 27.0903L17.192 27.0843L17.2153 27.0775L16.7972 25.6369ZM16.309 25.7617L16.6377 27.2252L16.6591 27.2204L16.6803 27.215L16.309 25.7617ZM11.7715 25.1192L12.3267 23.7257L11.181 26.4981L11.7715 25.1192ZM11.811 25.135L12.3963 23.7538L12.3813 23.7475L12.3662 23.7415L11.811 25.135ZM11.9044 25.1745L13.0097 26.1885L14.4462 24.6225L12.4896 23.7934L11.9044 25.1745ZM11.3609 25.7669L12.4415 26.8073L12.4541 26.7942L12.4663 26.7809L11.3609 25.7669ZM10.0797 26.8826L9.20995 25.6605L9.20993 25.6605L10.0797 26.8826ZM4.97224 27.9191L5.11155 26.4256L5.11139 26.4256L4.97224 27.9191ZM0.0836778 22.469L-1.38563 22.1671L-1.38563 22.1671L0.0836778 22.469ZM11.9207 12.2546L11.5658 10.7972L11.5658 10.7972L11.9207 12.2546ZM13.8591 11.838L14.1332 13.3127L18.1877 12.5593L14.5966 10.5318L13.8591 11.838ZM6.37717 7.61354L7.11466 6.30736L7.11453 6.30728L6.37717 7.61354ZM5.27981 3.99838L4.00532 3.20739L5.27981 3.99838ZM26.0558 1.36235L25.6275 2.79988L26.0558 1.36235ZM31.6106 5.05832L30.4065 5.95283L31.3606 7.23716L32.5808 6.20229L31.6106 5.05832ZM35.3851 2.80197L34.9412 1.36916L34.9247 1.37428L34.9082 1.37979L35.3851 2.80197ZM36.0328 2.60129L35.6214 1.15881L35.6051 1.16346L35.5889 1.16848L36.0328 2.60129ZM52.8755 6.8018L54.1109 5.95117L52.8755 6.8018ZM51.3828 10.7439L51.9235 12.1431L51.9241 12.1428L51.3828 10.7439ZM43.0763 13.9544L42.5355 12.5552L38.468 14.1273L42.6419 15.3901L43.0763 13.9544ZM48.3078 16.1762L47.5781 17.4867L47.5781 17.4867L48.3078 16.1762ZM56.9087 28.2554L55.4094 28.3008L55.4094 28.3013L56.9087 28.2554ZM49.938 33.0243L50.1964 31.5468L50.1961 31.5467L49.938 33.0243ZM46.3864 31.9116L45.6566 33.2221L45.657 33.2223L46.3864 31.9116ZM43.8081 28.6773L45.2097 28.1427L45.2057 28.1327L43.8081 28.6773ZM43.7644 28.5652L45.1621 28.0206L44.7621 26.9942L43.6631 27.0686L43.7644 28.5652ZM42.992 28.6175L43.0692 30.1155L43.0812 30.1149L43.0933 30.1141L42.992 28.6175ZM39.5469 28.0831L38.8606 29.4169L38.8845 29.4292L38.9089 29.4407L39.5469 28.0831ZM39.0713 27.8384L38.3415 29.1489L38.3631 29.1609L38.385 29.1722L39.0713 27.8384ZM36.4927 24.6039L37.8942 24.0694L35.0851 25.1222L36.4927 24.6039ZM36.5048 24.6369L36.756 26.1157L38.5365 25.8133L37.9124 24.1186L36.5048 24.6369ZM35.3865 24.8269L35.5873 26.3134L35.6125 26.31L35.6376 26.3057L35.3865 24.8269ZM32.1667 24.6343L31.738 26.0717L31.7382 26.0718L32.1667 24.6343ZM28.9018 22.4218L29.9867 21.386L28.4734 19.801L27.5435 21.7853L28.9018 22.4218ZM27.5323 25.5821L28.9246 26.1404L27.5323 25.5821ZM24.8766 33.9335L26.338 34.2713L26.338 34.2713L24.8766 33.9335ZM23.8519 40.143L25.3423 40.3125L23.8519 40.143ZM23.2179 53.1254L21.7179 53.1363L21.7181 53.1481L23.2179 53.1254ZM23.2321 54.0656L21.7323 54.0883L21.7529 55.4482L23.1082 55.5605L23.2321 54.0656ZM48.4649 52.8546L48.7922 54.3184L48.4649 52.8546ZM52.5341 51.5969L53.1594 52.9603L53.1831 52.9495L53.2064 52.9378L52.5341 51.5969ZM52.9408 51.393L53.613 52.7339L56.3425 51.3655L53.5913 50.0414L52.9408 51.393ZM52.5206 51.1908L53.1711 49.8392L53.1334 49.8211L53.0949 49.8051L52.5206 51.1908ZM51.8658 50.9194L52.4401 49.5337L52.4222 49.5263L52.4042 49.5194L51.8658 50.9194ZM50.4597 50.4452L50.887 49.0073L50.8792 49.005L50.8713 49.0028L50.4597 50.4452ZM49.9574 50.3018L50.3691 48.8594L50.3615 48.8573L50.3539 48.8552L49.9574 50.3018ZM44.5731 43.6472L44.7466 42.1572L44.7369 42.1561L44.7272 42.1551L44.5731 43.6472ZM46.267 43.8444L46.4608 42.357L46.4506 42.3556L46.4405 42.3545L46.267 43.8444ZM44.0934 59.3324L44.254 60.8237L44.2623 60.8228L44.2706 60.8219L44.0934 59.3324ZM42.3316 59.5221L42.461 61.0165L42.4767 61.0152L42.4923 61.0135L42.3316 59.5221ZM40.5059 59.6802L40.6205 61.1758L40.6279 61.1752L40.6353 61.1746L40.5059 59.6802ZM39.5704 59.7474L39.657 61.2449L39.6707 61.244L39.5704 59.7474ZM37.6569 59.8579L37.7171 61.3567L37.7303 61.3562L37.7435 61.3554L37.6569 59.8579ZM35.6905 59.9369L35.738 61.4362L35.7506 61.4357L35.6905 59.9369ZM33.6754 59.9842L33.6869 61.4842L33.6986 61.484L33.6754 59.9842ZM31.6161 60L31.6046 61.5L31.6161 61.5L31.6276 61.5L31.6161 60ZM29.5569 59.9842L29.5336 61.4841L29.5454 61.4842L29.5569 59.9842ZM27.5418 59.9369L27.4816 61.4357L27.4942 61.4361L27.5418 59.9369ZM25.5753 59.8579L25.4888 61.3554L25.5019 61.3562L25.5151 61.3567L25.5753 59.8579ZM23.6618 59.7474L23.5615 61.2441L23.5753 61.2449L23.6618 59.7474ZM22.7263 59.6802L22.5969 61.1746L22.6043 61.1753L22.6117 61.1758L22.7263 59.6802ZM20.9006 59.5221L20.7399 61.0135L20.7556 61.0152L20.7712 61.0165L20.9006 59.5221ZM19.1389 59.3324L18.9616 60.8219L18.9699 60.8229L18.9782 60.8237L19.1389 59.3324ZM6.63596 47.1178L5.92049 45.7994L6.63596 47.1178ZM11.2537 47.947L10.0663 48.8636L11.2537 47.947ZM10.8597 51.408L11.7814 52.5914L11.8141 52.5659L11.8453 52.5387L10.8597 51.408ZM10.6488 51.5722L9.72708 50.3888L7.85122 51.8498L9.97765 52.9137L10.6488 51.5722ZM10.6981 51.5969L10.027 52.9384L10.0497 52.9497L10.0728 52.9603L10.6981 51.5969ZM14.0448 52.6854L13.6875 54.1422L13.6952 54.1441L13.7028 54.1459L14.0448 52.6854ZM14.7673 52.8546L14.4254 54.3151L14.4327 54.3168L14.44 54.3184L14.7673 52.8546ZM16.5318 53.2107L16.2632 54.6865L18.0249 55.0072L18.0318 53.2165L16.5318 53.2107ZM16.5391 51.3046L15.0392 51.2939L15.0391 51.2988L16.5391 51.3046ZM34.0519 18.4399L33.9718 16.942L33.9621 16.9425L33.9524 16.9432L34.0519 18.4399ZM33.7032 18.4631L33.6036 16.9664L30.4515 17.176L32.6063 19.4862L33.7032 18.4631ZM34.0724 18.859L32.9755 19.8821L32.9988 19.907L33.0231 19.9308L34.0724 18.859ZM34.4946 19.2723L33.4452 20.3441L33.9967 20.884L34.7566 20.7492L34.4946 19.2723ZM35.5598 19.0833L35.3101 17.6042L35.2978 17.6063L35.5598 19.0833ZM40.2753 19.6639L41.0051 18.3533L41.0049 18.3533L40.2753 19.6639ZM42.8539 22.8983L44.2665 22.3937L44.2611 22.3787L44.2555 22.3638L42.8539 22.8983ZM42.8929 23.0074L41.4803 23.5119L41.8604 24.576L42.988 24.5043L42.8929 23.0074ZM43.67 22.958L43.5927 21.4599L43.5838 21.4604L43.5748 21.461L43.67 22.958ZM47.1151 23.4923L47.8014 22.1586L47.7775 22.1463L47.7531 22.1348L47.1151 23.4923ZM47.5907 23.7371L48.3205 22.4266L48.299 22.4146L48.277 22.4033L47.5907 23.7371ZM49.4183 25.374L50.7149 24.6199L50.7007 24.5953L50.6855 24.5714L49.4183 25.374ZM49.6182 25.7177L48.3215 26.4718L50.9959 25.1245L49.6182 25.7177ZM49.5526 25.5653L50.9303 24.9721L50.9193 24.9466L50.9074 24.9215L49.5526 25.5653ZM45.2908 21.2363L46.0734 19.9567L46.06 19.9485L46.0465 19.9407L45.2908 21.2363ZM44.6132 20.8411L45.369 19.5455L45.3561 19.5379L45.343 19.5306L44.6132 20.8411ZM23.6554 17.5402L24.153 16.1252L24.1344 16.1186L24.1156 16.1126L23.6554 17.5402ZM13.7833 17.6323L13.4284 16.1749L13.4284 16.1749L13.7833 17.6323ZM8.69772 19.9801L7.7163 18.8458L7.70382 18.8566L7.69158 18.8676L8.69772 19.9801ZM8.50831 20.1514L7.50217 19.0389L9.23424 21.4641L8.50831 20.1514ZM8.72734 20.0303L8.04731 18.6933L8.02415 18.7051L8.00141 18.7177L8.72734 20.0303ZM9.7095 19.6378L9.3278 18.1872L9.29949 18.1947L9.2715 18.2032L9.7095 19.6378ZM10.2716 19.4899L9.94271 18.0264L9.91617 18.0324L9.88987 18.0393L10.2716 19.4899ZM14.8086 20.1319L14.2257 21.514L15.3991 18.753L14.8086 20.1319ZM14.4624 19.9859L13.3145 19.0204L12.0049 20.5774L13.8796 21.368L14.4624 19.9859ZM14.8738 19.4968L13.7514 18.5017L13.7384 18.5163L13.7259 18.5313L14.8738 19.4968ZM16.8727 18.0676L16.4034 16.6429L16.3756 16.6521L16.3482 16.6623L16.8727 18.0676ZM17.3096 17.9237L16.9384 16.4704L16.8889 16.483L16.8403 16.499L17.3096 17.9237ZM17.7977 17.799L17.4689 16.3355L17.4477 16.3403L17.4266 16.3457L17.7977 17.799ZM20.7591 17.7873L21.0434 16.3145L21.0335 16.3126L21.0236 16.3108L20.7591 17.7873ZM22.3388 18.0922L22.0545 19.565L22.0637 19.5668L22.073 19.5685L22.3388 18.0922ZM23.882 18.1506L24.2858 19.5953L23.6391 16.6704L23.882 18.1506ZM23.7505 18.1722L22.4135 17.4922L21.0708 20.1321L23.9934 19.6524L23.7505 18.1722ZM23.993 17.7001L25.3245 18.391L25.3401 18.3609L25.3543 18.3302L23.993 17.7001ZM24.0094 17.6647L25.3707 18.2948L26.0638 16.7972L24.5071 16.2497L24.0094 17.6647ZM23.8193 6.63887L24.3187 5.22445L24.2835 5.21201L24.2477 5.20134L23.8193 6.63887ZM14.9105 5.65756L14.974 7.15621L14.986 7.1557L14.9979 7.15501L14.9105 5.65756ZM14.8763 5.659L14.8128 4.16035L9.56579 4.38273L14.1387 6.96513L14.8763 5.659ZM26.21 12.0593L25.4724 13.3654L26.8445 14.1403L27.5509 12.7317L26.21 12.0593ZM26.3101 11.8598L27.6509 12.5321L27.6517 12.5306L26.3101 11.8598ZM26.7216 11.0808L28.0324 11.8101L28.217 11.4781L28.2215 11.0983L26.7216 11.0808ZM24.2131 6.77793L24.7839 5.39077L24.7486 5.37623L24.7126 5.36351L24.2131 6.77793ZM42.9184 7.69368L43.1727 6.2154L43.1586 6.21297L43.1444 6.21081L42.9184 7.69368ZM37.8651 8.00144L38.3419 9.42362L38.342 9.42361L37.8651 8.00144ZM34.5578 10.8351L33.3889 9.89501L33.3828 9.90265L33.3767 9.91037L34.5578 10.8351ZM34.2742 11.1973L33.0932 10.2725L29.7334 14.5634L34.8157 12.5961L34.2742 11.1973ZM43.2001 7.74215L43.7416 9.14101L48.7987 7.18345L43.4544 6.26388L43.2001 7.74215ZM18.6939 39.7809C18.9682 37.3691 19.3281 35.167 19.7815 33.2058L16.8586 32.5301C16.3738 34.6272 15.9971 36.9454 15.7131 39.4419L18.6939 39.7809ZM19.7815 33.2058C20.4697 30.2282 21.429 27.2619 22.5942 24.3559L19.8097 23.2394C18.5944 26.2703 17.5857 29.3843 16.8585 32.5302L19.7815 33.2058ZM22.5694 24.4141L22.6463 24.2435L19.9114 23.0105L19.8345 23.1812L22.5694 24.4141ZM21.5246 22.1472C21.2448 22.1008 20.9495 22.0457 20.6338 21.9821L20.0415 24.9231C20.3827 24.9918 20.7124 25.0535 21.0332 25.1067L21.5246 22.1472ZM20.6313 21.9816L20.112 21.878L19.5249 24.8199L20.0441 24.9236L20.6313 21.9816ZM18.641 22.4197L18.3604 22.7752L20.7154 24.6337L20.9959 24.2782L18.641 22.4197ZM18.3756 22.7562C17.6773 23.6122 17.2329 23.9486 16.3792 24.1964L17.2153 27.0775C18.8219 26.6113 19.7452 25.8232 20.7002 24.6526L18.3756 22.7562ZM16.426 24.1836L15.9377 24.3083L16.6803 27.215L17.1685 27.0903L16.426 24.1836ZM15.9803 24.2981C15.2682 24.4581 14.7772 24.4687 14.306 24.392C13.7998 24.3096 13.2353 24.1144 12.3621 23.7404L11.181 26.4981C12.0951 26.8896 12.9387 27.2089 13.824 27.353C14.7444 27.5028 15.6284 27.4519 16.6377 27.2252L15.9803 24.2981ZM11.2164 26.5127L11.2559 26.5284L12.3662 23.7415L12.3267 23.7257L11.2164 26.5127ZM11.2258 26.5161L11.3191 26.5556L12.4896 23.7934L12.3963 23.7538L11.2258 26.5161ZM10.799 24.1605L10.2556 24.7529L12.4663 26.7809L13.0097 26.1885L10.799 24.1605ZM10.2804 24.7265C9.93031 25.0901 9.59694 25.3851 9.20995 25.6605L10.9495 28.1047C11.5119 27.7044 11.9846 27.2818 12.4415 26.8073L10.2804 24.7265ZM9.20993 25.6605C8.2024 26.3776 6.91411 26.5937 5.11155 26.4256L4.83292 29.4126C6.95986 29.611 9.10001 29.421 10.9495 28.1046L9.20993 25.6605ZM5.11139 26.4256C2.49224 26.1816 1.23696 24.3089 1.55298 22.7709L-1.38563 22.1671C-2.1693 25.9812 1.01581 29.057 4.83309 29.4126L5.11139 26.4256ZM1.55298 22.7709C2.34701 18.9066 5.47293 15.3686 12.2756 13.712L11.5658 10.7972C3.9571 12.6501 -0.298141 16.8746 -1.38563 22.1671L1.55298 22.7709ZM12.2756 13.712C12.9073 13.5582 13.5265 13.4254 14.1332 13.3127L13.5851 10.3632C12.923 10.4862 12.2498 10.6307 11.5658 10.7972L12.2756 13.712ZM14.5966 10.5318L7.11466 6.30736L5.63969 8.91972L13.1217 13.1441L14.5966 10.5318ZM7.11453 6.30728C6.33498 5.86725 6.28535 5.22273 6.55431 4.78937L4.00532 3.20739C2.70574 5.30135 3.60072 7.76877 5.63982 8.9198L7.11453 6.30728ZM6.55431 4.78937C7.01151 4.0527 7.85085 3.36519 9.11957 2.80317C10.3807 2.24451 11.9751 1.85178 13.792 1.65182C17.4292 1.25152 21.7543 1.64569 25.6275 2.79988L26.4842 -0.0751786C22.2476 -1.3377 17.5198 -1.77656 13.4638 -1.33018C11.4343 -1.10681 9.52203 -0.656274 7.90452 0.0602485C6.29458 0.773418 4.88312 1.79303 4.00532 3.20739L6.55431 4.78937ZM25.6275 2.79988C27.8592 3.46493 29.4051 4.60487 30.4065 5.95283L32.8147 4.16381C31.3912 2.24773 29.2768 0.757012 26.4842 -0.0751786L25.6275 2.79988ZM32.5808 6.20229C33.6988 5.25406 34.8214 4.57306 35.862 4.22414L34.9082 1.37979C33.4004 1.8854 31.9494 2.80416 30.6404 3.91435L32.5808 6.20229ZM35.829 4.23478L36.4768 4.0341L35.5889 1.16848L34.9412 1.36916L35.829 4.23478ZM36.4443 4.04377C39.133 3.27691 42.3413 3.24362 45.2164 3.91267C48.1204 4.58846 50.4475 5.92045 51.64 7.65244L54.1109 5.95117C52.3331 3.36905 49.1937 1.75805 45.8963 0.990744C42.5701 0.216702 38.8422 0.240206 35.6214 1.15881L36.4443 4.04377ZM51.64 7.65244C51.8491 7.95612 51.864 8.25216 51.7634 8.51778C51.6566 8.79988 51.378 9.13739 50.8414 9.34501L51.9241 12.1428C53.1711 11.6603 54.1299 10.7399 54.569 9.58012C55.0144 8.40382 54.8839 7.07388 54.1109 5.95117L51.64 7.65244ZM50.842 9.34479L42.5355 12.5552L43.617 15.3535L51.9235 12.1431L50.842 9.34479ZM42.6419 15.3901C44.3084 15.8943 45.9597 16.5856 47.5781 17.4867L49.0376 14.8657C47.2298 13.859 45.3802 13.0843 43.5106 12.5186L42.6419 15.3901ZM47.5781 17.4867C53.1133 20.5687 55.2935 24.4692 55.4094 28.3008L58.408 28.2101C58.2533 23.0968 55.2788 18.3408 49.0375 14.8657L47.5781 17.4867ZM55.4094 28.3013C55.4394 29.2799 54.938 30.1796 53.9836 30.8218C53.0184 31.4712 51.6471 31.8004 50.1964 31.5468L49.6797 34.5019C51.8588 34.8829 54.0214 34.4122 55.6583 33.3108C57.3059 32.2023 58.475 30.4002 58.408 28.2096L55.4094 28.3013ZM50.1961 31.5467C48.8399 31.3099 47.8623 31.0164 47.1159 30.601L45.657 33.2223C46.8319 33.8763 48.1908 34.2419 49.68 34.502L50.1961 31.5467ZM47.1163 30.6012C46.5174 30.2677 46.2025 29.9852 45.9721 29.6825C45.7217 29.3537 45.504 28.9146 45.2096 28.1428L42.4065 29.2118C42.7244 30.0452 43.0647 30.8161 43.585 31.4996C44.1252 32.2092 44.7933 32.7413 45.6566 33.2221L47.1163 30.6012ZM45.2057 28.1327L45.1621 28.0206L42.3668 29.1098L42.4104 29.2219L45.2057 28.1327ZM43.6631 27.0686L42.8907 27.1209L43.0933 30.1141L43.8657 30.0618L43.6631 27.0686ZM42.9147 27.1195C41.6329 27.1856 40.9618 27.0907 40.1849 26.7256L38.9089 29.4407C40.3036 30.0962 41.5268 30.1951 43.0692 30.1155L42.9147 27.1195ZM40.2332 26.7494L39.7576 26.5046L38.385 29.1722L38.8606 29.4169L40.2332 26.7494ZM39.8011 26.5279C39.2021 26.1944 38.8871 25.9119 38.6567 25.6092C38.4064 25.2804 38.1886 24.8414 37.8942 24.0694L35.0912 25.1384C35.409 25.972 35.7494 26.743 36.2697 27.4264C36.81 28.1361 37.4781 28.6681 38.3415 29.1489L39.8011 26.5279ZM35.0851 25.1222L35.0972 25.1552L37.9124 24.1186L37.9003 24.0856L35.0851 25.1222ZM36.2536 23.1581L35.1353 23.3481L35.6376 26.3057L36.756 26.1157L36.2536 23.1581ZM35.1856 23.3404C34.1835 23.4758 33.4365 23.4476 32.5952 23.1968L31.7382 26.0718C33.0843 26.473 34.2767 26.4904 35.5873 26.3134L35.1856 23.3404ZM32.5954 23.1969C31.7514 22.9452 30.9834 22.4299 29.9867 21.386L27.8169 23.4577C29.0036 24.7005 30.2016 25.6135 31.738 26.0717L32.5954 23.1969ZM27.5435 21.7853C27.062 22.8128 26.592 23.8968 26.1401 25.0239L28.9246 26.1404C29.3565 25.0632 29.804 24.0315 30.26 23.0583L27.5435 21.7853ZM26.1401 25.0239C25.0148 27.8304 24.0827 30.7074 23.4151 33.5957L26.338 34.2713C26.9666 31.552 27.8491 28.8227 28.9246 26.1404L26.1401 25.0239ZM23.4151 33.5956C22.9746 35.5013 22.6263 37.6457 22.3615 39.9735L25.3423 40.3125C25.5977 38.0675 25.9292 36.0396 26.338 34.2713L23.4151 33.5956ZM22.3615 39.9735C21.8592 44.3899 21.6879 49.0114 21.7179 53.1363L24.7178 53.1145C24.6885 49.0796 24.8567 44.5821 25.3423 40.3125L22.3615 39.9735ZM21.7181 53.1481L21.7323 54.0883L24.7319 54.0429L24.7177 53.1027L21.7181 53.1481ZM23.1082 55.5605C25.7819 55.7821 28.6559 55.9001 31.6161 55.9001V52.9001C28.7339 52.9001 25.9428 52.7851 23.356 52.5708L23.1082 55.5605ZM31.6161 55.9001C38.1468 55.9001 44.2888 55.3253 48.7922 54.3184L48.1376 51.3907C43.9132 52.3352 38.0038 52.9001 31.6161 52.9001V55.9001ZM48.7922 54.3184C50.5786 53.919 52.08 53.4554 53.1594 52.9603L51.9088 50.2335C51.0984 50.6051 49.824 51.0136 48.1376 51.3907L48.7922 54.3184ZM53.2064 52.9378L53.613 52.7339L52.2685 50.0521L51.8619 50.256L53.2064 52.9378ZM53.5913 50.0414L53.1711 49.8392L51.87 52.5424L52.2903 52.7446L53.5913 50.0414ZM53.0949 49.8051L52.4401 49.5337L51.2914 52.3051L51.9462 52.5765L53.0949 49.8051ZM52.4042 49.5194C51.9847 49.3581 51.4822 49.1842 50.887 49.0073L50.0324 51.883C50.555 52.0384 50.9833 52.1871 51.3273 52.3194L52.4042 49.5194ZM50.8713 49.0028L50.3691 48.8594L49.5458 51.7443L50.048 51.8876L50.8713 49.0028ZM50.3539 48.8552C46.6881 47.8505 41.3521 47.3003 34.9554 47.3003V50.3003C41.2316 50.3003 46.265 50.8452 49.5609 51.7485L50.3539 48.8552ZM34.9554 47.3003C33.6812 47.3003 33.1161 46.4816 33.1161 46.0004H30.1161C30.1161 48.6118 32.5411 50.3003 34.9554 50.3003V47.3003ZM33.1161 46.0004C33.1161 45.5191 33.6812 44.7004 34.9554 44.7004V41.7004C32.5411 41.7004 30.1161 43.3889 30.1161 46.0004H33.1161ZM34.9554 44.7004C38.4149 44.7004 41.5889 44.8469 44.419 45.1392L44.7272 42.1551C41.7752 41.8502 38.496 41.7004 34.9554 41.7004V44.7004ZM44.3996 45.1371L46.0935 45.3343L46.4405 42.3545L44.7466 42.1572L44.3996 45.1371ZM46.0732 45.3318C50.2679 45.8783 53.4889 46.7658 55.6175 47.9262C57.7348 49.0804 58.5 50.3314 58.5 51.6002H61.5C61.5 48.7882 59.668 46.7175 57.0534 45.2921C54.4501 43.8729 50.8045 42.9229 46.4608 42.357L46.0732 45.3318ZM58.5 51.6002C58.5 52.6867 57.6464 53.9616 54.9823 55.192C52.4022 56.3836 48.6053 57.285 43.9161 57.8429L44.2706 60.8219C49.0868 60.2489 53.2432 59.2996 56.2401 57.9155C59.153 56.5703 61.5 54.5445 61.5 51.6002H58.5ZM43.9327 57.841L42.171 58.0308L42.4923 61.0135L44.254 60.8237L43.9327 57.841ZM42.2023 58.0277L40.3765 58.1858L40.6353 61.1746L42.461 61.0165L42.2023 58.0277ZM40.3913 58.1846C40.0868 58.2079 39.7797 58.23 39.4701 58.2507L39.6707 61.244C39.9897 61.2226 40.3063 61.1999 40.6205 61.1758L40.3913 58.1846ZM39.4839 58.2499L37.5704 58.3604L37.7435 61.3554L39.6569 61.2449L39.4839 58.2499ZM37.5968 58.3591L35.6303 58.4381L35.7506 61.4357L37.7171 61.3567L37.5968 58.3591ZM35.6429 58.4376C34.9874 58.4584 34.3236 58.474 33.6522 58.4844L33.6986 61.484C34.3858 61.4734 35.0659 61.4574 35.738 61.4361L35.6429 58.4376ZM33.6639 58.4843L31.6046 58.5L31.6276 61.5L33.6869 61.4842L33.6639 58.4843ZM31.6276 58.5L29.5683 58.4843L29.5454 61.4842L31.6046 61.5L31.6276 58.5ZM29.5801 58.4844C28.9087 58.474 28.2449 58.4584 27.5893 58.4376L27.4942 61.4361C28.1664 61.4574 28.8464 61.4734 29.5336 61.484L29.5801 58.4844ZM27.6019 58.4381L25.6355 58.3591L25.5151 61.3567L27.4816 61.4357L27.6019 58.4381ZM25.6618 58.3604L23.7483 58.2499L23.5753 61.2449L25.4888 61.3554L25.6618 58.3604ZM23.7621 58.2507C23.4525 58.23 23.1454 58.2079 22.8409 58.1846L22.6117 61.1758C22.926 61.1999 23.2426 61.2226 23.5615 61.244L23.7621 58.2507ZM22.8557 58.1858L21.03 58.0277L20.7712 61.0165L22.5969 61.1746L22.8557 58.1858ZM21.0612 58.0308L19.2995 57.841L18.9782 60.8237L20.7399 61.0135L21.0612 58.0308ZM19.3161 57.8429C14.6269 57.285 10.83 56.3836 8.24996 55.192C5.5859 53.9616 4.73225 52.6867 4.73225 51.6002H1.73225C1.73225 54.5445 4.07922 56.5703 6.99211 57.9156C9.98897 59.2996 14.1454 60.2489 18.9616 60.8219L19.3161 57.8429ZM4.73225 51.6002C4.73225 50.5484 5.44371 49.4715 7.35144 48.4362L5.92049 45.7994C3.6506 47.0313 1.73225 48.899 1.73225 51.6002H4.73225ZM7.35144 48.4362C8.32421 47.9083 9.56198 48.2102 10.0663 48.8636L12.4411 47.0304C10.9413 45.0874 8.0442 44.6469 5.92049 45.7994L7.35144 48.4362ZM10.0663 48.8636C10.4019 49.2983 10.3745 49.8409 9.87396 50.2773L11.8453 52.5387C13.4456 51.1436 13.8234 48.8211 12.4411 47.0304L10.0663 48.8636ZM9.93794 50.2246L9.72708 50.3888L11.5705 52.7556L11.7814 52.5914L9.93794 50.2246ZM9.97765 52.9137L10.027 52.9384L11.3693 50.2554L11.3199 50.2307L9.97765 52.9137ZM10.0728 52.9603C11.0015 53.3863 12.2371 53.7866 13.6875 54.1422L14.402 51.2285C13.0498 50.897 12.0145 50.5504 11.3235 50.2335L10.0728 52.9603ZM13.7028 54.1459L14.4254 54.3151L15.1093 51.3941L14.3867 51.2249L13.7028 54.1459ZM14.44 54.3184C15.0227 54.4487 15.6314 54.5714 16.2632 54.6865L16.8005 51.735C16.2044 51.6264 15.635 51.5115 15.0946 51.3907L14.44 54.3184ZM18.0318 53.2165L18.0391 51.3103L15.0391 51.2988L15.0318 53.205L18.0318 53.2165ZM18.0391 51.3152C18.0654 47.6068 18.2567 43.6249 18.6939 39.7809L15.7131 39.4419C15.2615 43.4128 15.0661 47.5034 15.0392 51.2939L18.0391 51.3152ZM33.9524 16.9432L33.6036 16.9664L33.8027 19.9598L34.1515 19.9366L33.9524 16.9432ZM32.6063 19.4862L32.9755 19.8821L35.1694 17.8359L34.8001 17.44L32.6063 19.4862ZM33.0231 19.9308L33.4452 20.3441L35.5439 18.2004L35.1218 17.7871L33.0231 19.9308ZM34.7566 20.7492L35.8218 20.5602L35.2978 17.6063L34.2326 17.7953L34.7566 20.7492ZM35.8095 20.5624C36.7663 20.4008 37.3919 20.3551 37.9191 20.4113C38.4147 20.4641 38.9017 20.6159 39.5457 20.9744L41.0049 18.3533C40.0804 17.8386 39.2078 17.5316 38.2369 17.4282C37.2976 17.3281 36.3497 17.4287 35.3101 17.6042L35.8095 20.5624ZM39.5455 20.9744C40.1445 21.3079 40.4595 21.5904 40.6899 21.893C40.9402 22.2218 41.158 22.6609 41.4524 23.4328L44.2555 22.3638C43.9376 21.5303 43.5972 20.7593 43.0769 20.0758C42.5367 19.3662 41.8685 18.8341 41.0051 18.3533L39.5455 20.9744ZM41.4413 23.4029L41.4803 23.5119L44.3055 22.5028L44.2665 22.3937L41.4413 23.4029ZM42.988 24.5043L43.7652 24.4549L43.5748 21.461L42.7977 21.5104L42.988 24.5043ZM43.7473 24.456C45.0291 24.3899 45.7002 24.4848 46.4771 24.8499L47.7531 22.1348C46.3584 21.4793 45.1352 21.3804 43.5927 21.4599L43.7473 24.456ZM46.4288 24.8261L46.9044 25.0709L48.277 22.4033L47.8014 22.1586L46.4288 24.8261ZM46.8609 25.0476C47.5648 25.4395 47.8925 25.7683 48.1511 26.1766L50.6855 24.5714C50.1086 23.6605 49.3714 23.0118 48.3205 22.4266L46.8609 25.0476ZM48.1217 26.1282L48.3215 26.4718L50.9148 24.9635L50.7149 24.6199L48.1217 26.1282ZM50.9959 25.1245L50.9303 24.9721L48.1748 26.1584L48.2404 26.3108L50.9959 25.1245ZM50.9074 24.9215C50.0209 23.0561 48.4267 21.3959 46.0734 19.9567L44.5081 22.516C46.5064 23.7381 47.6241 25.002 48.1977 26.2091L50.9074 24.9215ZM46.0465 19.9407L45.369 19.5455L43.8575 22.1368L44.535 22.532L46.0465 19.9407ZM45.343 19.5306C41.6466 17.4724 37.7626 16.7393 33.9718 16.942L34.132 19.9377C37.4132 19.7623 40.7268 20.394 43.8835 22.1517L45.343 19.5306ZM24.1156 16.1126C21.321 15.2117 17.7846 15.1141 13.4284 16.1749L14.1382 19.0897C18.1012 18.1247 21.0543 18.2778 23.1951 18.9679L24.1156 16.1126ZM13.4284 16.1749C10.9796 16.7712 9.08978 17.6575 7.7163 18.8458L9.67915 21.1145C10.5823 20.3331 11.9869 19.6136 14.1382 19.0897L13.4284 16.1749ZM7.69158 18.8676L7.50217 19.0389L9.51446 21.2639L9.70387 21.0926L7.69158 18.8676ZM9.23424 21.4641L9.45326 21.3429L8.00141 18.7177L7.78239 18.8388L9.23424 21.4641ZM9.40736 21.3673C9.62616 21.256 9.86843 21.1577 10.1475 21.0725L9.2715 18.2032C8.8363 18.3361 8.43103 18.4981 8.04731 18.6933L9.40736 21.3673ZM10.0912 21.0885L10.6533 20.9406L9.88987 18.0393L9.3278 18.1872L10.0912 21.0885ZM15.6104 20.9514L16.0217 20.4623L13.7259 18.5313L13.3145 19.0204L15.6104 20.9514ZM15.9962 20.4918C16.4756 19.9511 16.8504 19.677 17.3971 19.473L16.3482 16.6623C15.2387 17.0763 14.4746 17.6859 13.7514 18.5017L15.9962 20.4918ZM17.3419 19.4923L17.7789 19.3484L16.8403 16.499L16.4034 16.6429L17.3419 19.4923ZM17.6808 19.3771L18.1689 19.2524L17.4266 16.3457L16.9384 16.4704L17.6808 19.3771ZM18.1266 19.2626C18.61 19.1539 18.9069 19.1155 19.1994 19.1143C19.5051 19.113 19.8704 19.152 20.4946 19.2638L21.0236 16.3108C20.3397 16.1883 19.7644 16.1118 19.1865 16.1143C18.5954 16.1168 18.0656 16.2014 17.4689 16.3355L18.1266 19.2626ZM20.4748 19.2601L22.0545 19.565L22.6231 16.6194L21.0434 16.3145L20.4748 19.2601ZM22.073 19.5685C22.9133 19.7198 23.5975 19.7877 24.2858 19.5953L23.4783 16.706C23.474 16.7072 23.4678 16.7088 23.4532 16.7104C23.4366 16.7122 23.4012 16.7146 23.338 16.7125C23.2017 16.7079 22.9823 16.684 22.6045 16.6159L22.073 19.5685ZM23.6391 16.6704L23.5076 16.692L23.9934 19.6524L24.125 19.6308L23.6391 16.6704ZM25.0875 18.8523C25.1665 18.697 25.2455 18.5432 25.3245 18.391L22.6616 17.0092C22.5789 17.1687 22.4962 17.3297 22.4135 17.4922L25.0875 18.8523ZM25.3543 18.3302L25.3707 18.2948L22.6482 17.0347L22.6318 17.0701L25.3543 18.3302ZM24.5071 16.2497L24.153 16.1252L23.1577 18.9552L23.5117 19.0798L24.5071 16.2497ZM24.2477 5.20134C21.0557 4.25012 17.482 4.00482 14.823 4.16011L14.9979 7.15501C17.3809 7.01584 20.5961 7.24354 23.3909 8.07639L24.2477 5.20134ZM14.847 4.1589L14.8128 4.16035L14.9398 7.15766L14.974 7.15621L14.847 4.1589ZM14.1387 6.96513L25.4724 13.3654L26.9476 10.7532L15.6139 4.35288L14.1387 6.96513ZM27.5509 12.7317L27.6509 12.5321L24.9692 11.1874L24.8691 11.3869L27.5509 12.7317ZM27.6517 12.5306C27.771 12.292 27.8981 12.0515 28.0324 11.8101L25.4108 10.3516C25.2557 10.6302 25.1081 10.9096 24.9685 11.1889L27.6517 12.5306ZM28.2215 11.0983C28.2486 8.77169 27.2068 6.38772 24.7839 5.39077L23.6424 8.16509C24.6085 8.56261 25.239 9.57762 25.2217 11.0634L28.2215 11.0983ZM24.7126 5.36351L24.3187 5.22445L23.3199 8.05328L23.7137 8.19235L24.7126 5.36351ZM43.1444 6.21081C41.2883 5.92783 39.1621 5.9844 37.3881 6.57928L38.342 9.42361C39.5463 9.01976 41.168 8.94416 42.6923 9.17654L43.1444 6.21081ZM37.3882 6.57927C36.6244 6.83536 35.8978 7.34872 35.2707 7.89762C34.6224 8.46498 33.9806 9.1594 33.3889 9.89501L35.7266 11.7752C36.2395 11.1375 36.7619 10.5792 37.2464 10.1551C37.7521 9.71255 38.1268 9.49575 38.3419 9.42362L37.3882 6.57927ZM33.3767 9.91037L33.0932 10.2725L35.4552 12.122L35.7388 11.7599L33.3767 9.91037ZM34.8157 12.5961L43.7416 9.14101L42.6586 6.34329L33.7327 9.79841L34.8157 12.5961ZM43.4544 6.26388L43.1727 6.2154L42.664 9.17195L42.9457 9.22043L43.4544 6.26388ZM10.6004 20.9534C11.2729 20.8023 11.7453 20.7853 12.1864 20.8462C12.6505 20.9103 13.1627 21.0713 13.9234 21.3864L15.0716 18.6149C14.2321 18.2671 13.4407 17.9909 12.5966 17.8744C11.7294 17.7547 10.889 17.8138 9.94271 18.0264L10.6004 20.9534ZM15.0803 18.6185L15.0453 18.6038L13.8796 21.368L13.9146 21.3828L15.0803 18.6185ZM15.3914 18.7497L15.0803 18.6185L13.9146 21.3828L14.2257 21.514L15.3914 18.7497ZM13.9234 21.3864C14.0182 21.4258 14.1163 21.4671 14.218 21.5107L15.3991 18.753C15.2883 18.7055 15.1792 18.6595 15.0716 18.6149L13.9234 21.3864Z" fill="#252837" mask="url(#path-1-inside-1)"/>
</svg>
