<svg width="48" height="48" viewBox="0 0 48 48" fill="none" xmlns="http://www.w3.org/2000/svg">
<path fill-rule="evenodd" clip-rule="evenodd" d="M32.25 5.16667C26.497 5.16667 21.8333 9.83037 21.8333 15.5833C21.8333 17.3462 22.2696 19.0012 23.0384 20.4521C23.4667 21.2605 23.3175 22.2537 22.6706 22.9006L6.02961 39.5417L8.29167 41.8037L24.9327 25.1627C25.5796 24.5158 26.5728 24.3666 27.3812 24.7949C28.8321 25.5637 30.4871 26 32.25 26C38.0029 26 42.6667 21.3363 42.6667 15.5833C42.6667 14.8777 42.5968 14.1893 42.4636 13.5244L36.8481 19.1398C36.0345 19.9534 34.7155 19.9534 33.9019 19.1398L28.6935 13.9315C27.8799 13.1179 27.8799 11.7988 28.6935 10.9852L34.309 5.36973C33.6441 5.23657 32.9557 5.16667 32.25 5.16667ZM17.6667 15.5833C17.6667 7.52917 24.1959 1 32.25 1C34.7094 1 37.0323 1.61049 39.0696 2.68994C39.6537 2.99942 40.0562 3.56772 40.1544 4.2214C40.2526 4.87507 40.0347 5.53656 39.5673 6.00396L33.1129 12.4583L35.375 14.7204L41.8294 8.26603C42.2968 7.79862 42.9583 7.58076 43.6119 7.67894C44.2656 7.77713 44.8339 8.1797 45.1434 8.76379C46.2228 10.801 46.8333 13.1239 46.8333 15.5833C46.8333 23.6375 40.3041 30.1667 32.25 30.1667C30.3462 30.1667 28.5241 29.8008 26.8531 29.1348L9.76481 46.2231C8.95121 47.0367 7.63212 47.0367 6.81853 46.2231L1.61019 41.0148C0.796602 40.2012 0.796602 38.8821 1.61019 38.0685L18.6985 20.9802C18.0325 19.3092 17.6667 17.4871 17.6667 15.5833Z" fill="white" stroke="#252837" stroke-width="2" stroke-linecap="round" stroke-linejoin="round"/>
</svg>
