<svg width="68" height="54" viewBox="0 0 68 54" fill="none" xmlns="http://www.w3.org/2000/svg">
<path fill-rule="evenodd" clip-rule="evenodd" d="M28.1818 2C24.9684 2 22.3636 4.48733 22.3636 7.55556V18.6667H15.0909C14.3596 18.6667 13.6551 18.9297 13.1177 19.4033L2.93592 28.3776C2.33931 28.9035 2 29.6435 2 30.4187V40.8889C2 42.423 3.30244 43.6667 4.90909 43.6667H10.7273C10.7273 48.269 14.6347 52 19.4545 52C24.2744 52 28.1818 48.269 28.1818 43.6667H42.7273C42.7273 48.269 46.6347 52 51.4545 52C56.2744 52 60.1818 48.269 60.1818 43.6667C63.3952 43.6667 66 41.1794 66 38.1111V7.55556C66 4.48733 63.3952 2 60.1818 2H28.1818ZM54.3636 43.6667H48.5455C48.5455 45.2007 49.848 46.4444 51.4545 46.4444C53.0611 46.4444 54.3636 45.2007 54.3636 43.6667ZM19.4545 46.4444C17.8479 46.4444 16.5454 45.2007 16.5454 43.6667H22.3636C22.3636 45.2007 21.0611 46.4444 19.4545 46.4444ZM28.1818 38.1111H60.1818V7.55556H28.1818V38.1111ZM22.3636 24.2222H16.2283L7.81818 31.635V38.1111H22.3636L22.3636 24.2222Z" fill="white" stroke="#252837" stroke-width="3" stroke-linecap="square" stroke-linejoin="round"/>
</svg>
