<svg width="34" height="34" viewBox="0 0 34 34" fill="none" xmlns="http://www.w3.org/2000/svg">
<g clip-path="url(#clip0)">
<path d="M2.12557 2.31358C-0.546266 5.08884 0.000567093 8.03692 0.000567093 16.9931C0.000567093 24.4306 -1.2971 31.8865 5.4944 33.6418C7.61515 34.1872 26.4058 34.1872 28.5237 33.6389C31.3514 32.9093 33.6521 30.6158 33.9666 26.6165C34.0105 26.0583 34.0105 7.93775 33.9651 7.36825C33.6308 3.10834 31.0086 0.653251 27.5533 0.156001C26.7614 0.0412508 26.6027 0.0072508 22.5397 0.000167463C8.12798 0.0072508 4.96882 -0.634499 2.12557 2.31358Z" fill="url(#paint0_linear)"/>
<path d="M16.9972 4.44669C11.8533 4.44669 6.96865 3.9891 5.1029 8.77744C4.33223 10.7551 4.44415 13.3235 4.44415 17.0012C4.44415 20.2284 4.34073 23.2614 5.1029 25.2235C6.9644 30.0147 11.8887 29.5557 16.9944 29.5557C21.9201 29.5557 26.9989 30.0685 28.8873 25.2235C29.6594 23.226 29.5461 20.6959 29.5461 17.0012C29.5461 12.0967 29.8166 8.93044 27.4381 6.55327C25.0297 4.14494 21.7728 4.44669 16.9916 4.44669H16.9972ZM15.8724 6.7091C26.6022 6.6921 27.9679 5.49927 27.2142 22.07C26.9465 27.9308 22.484 27.2876 16.9986 27.2876C6.99698 27.2876 6.7094 27.0014 6.7094 16.9955C6.7094 6.87344 7.50273 6.71477 15.8724 6.70627V6.7091ZM23.6981 8.79302C22.8665 8.79302 22.1921 9.46735 22.1921 10.2989C22.1921 11.1305 22.8665 11.8049 23.6981 11.8049C24.5296 11.8049 25.204 11.1305 25.204 10.2989C25.204 9.46735 24.5296 8.79302 23.6981 8.79302ZM16.9972 10.5539C13.4371 10.5539 10.5514 13.4411 10.5514 17.0012C10.5514 20.5613 13.4371 23.447 16.9972 23.447C20.5573 23.447 23.4416 20.5613 23.4416 17.0012C23.4416 13.4411 20.5573 10.5539 16.9972 10.5539ZM16.9972 12.8164C22.5293 12.8164 22.5364 21.186 16.9972 21.186C11.4666 21.186 11.4581 12.8164 16.9972 12.8164Z" fill="white"/>
</g>
<defs>
<linearGradient id="paint0_linear" x1="2.19076" y1="31.8286" x2="33.7902" y2="4.47965" gradientUnits="userSpaceOnUse">
<stop stop-color="#FFDD55"/>
<stop offset="0.5" stop-color="#FF543E"/>
<stop offset="1" stop-color="#C837AB"/>
</linearGradient>
<clipPath id="clip0">
<rect width="34" height="34" rx="10" fill="white"/>
</clipPath>
</defs>
</svg>
