<svg width="90" height="35" viewBox="0 0 90 35" fill="none" xmlns="http://www.w3.org/2000/svg">
<path d="M5.301 25.3065C5.27443 25.4376 5.24786 25.5688 5.22129 25.6999C5.22129 25.8048 5.22129 25.9229 5.22129 26.054L4.98214 26.8802C4.929 26.9852 4.88914 27.0507 4.86257 27.077L4.743 27.313C4.61014 27.6016 4.371 27.8376 4.02557 28.0212C3.38786 28.336 2.71029 28.4147 1.99286 28.2573C1.54114 28.2048 1.18243 28.0737 0.916714 27.8638C0.651 27.6802 0.465 27.4573 0.358714 27.195C0.252429 26.9327 0.172714 26.6704 0.119571 26.4081C0.0398571 26.1458 0 25.9097 0 25.6999V3.66713C0 3.48352 0 3.32614 0 3.195C0.0265714 3.03762 0.0531429 2.89336 0.0797144 2.76221C0.106286 2.5786 0.132857 2.42123 0.159429 2.29008C0.212571 2.15893 0.265714 2.01467 0.318857 1.85729C0.398571 1.595 0.544714 1.38516 0.757286 1.22778C1.07614 0.991719 1.38171 0.860571 1.674 0.834341C1.86 0.781882 2.03271 0.755653 2.19214 0.755653C2.35157 0.729424 2.53757 0.716309 2.75014 0.716309C3.12214 0.716309 3.54729 0.821226 4.02557 1.03106C4.39757 1.2409 4.66329 1.52942 4.82271 1.89664C5.08843 2.42123 5.22129 2.90647 5.22129 3.35237C5.24786 3.61467 5.26114 4.00811 5.26114 4.5327C5.28771 5.05729 5.301 5.45074 5.301 5.71303V5.87041C5.35414 6.70975 5.38071 7.52287 5.38071 8.30975C5.38071 9.07041 5.36743 9.90975 5.34086 10.8278C5.34086 11.7196 5.32757 12.5852 5.301 13.4245C5.301 14.2376 5.301 15.0507 5.301 15.8638V24.1261C5.301 24.2311 5.301 24.336 5.301 24.4409C5.32757 24.5196 5.34086 24.6114 5.34086 24.7163C5.34086 24.9786 5.32757 25.1753 5.301 25.3065ZM13.7046 10.6704C14.5815 10.2507 15.4982 9.9491 16.4548 9.76549C17.4113 9.58188 18.3546 9.54254 19.2846 9.64746C20.2412 9.75237 21.1579 10.0016 22.0348 10.395C22.9382 10.7884 23.7619 11.3393 24.5059 12.0475C25.1171 12.6507 25.6485 13.3852 26.1002 14.2507C26.5519 15.0901 26.8841 15.9163 27.0966 16.7294C27.5483 18.172 27.6148 19.6278 27.2959 21.0966C26.9771 22.5655 26.4323 23.9294 25.6618 25.1884C25.2898 25.7655 24.8248 26.2901 24.2668 26.7622C23.7353 27.2081 23.1641 27.5753 22.5529 27.8638C21.7558 28.2311 20.8922 28.4802 19.9622 28.6114C19.0322 28.7688 18.1288 28.8081 17.2519 28.7294C15.6576 28.6507 14.2493 28.2573 13.0271 27.5491C11.8313 26.8409 10.8615 25.936 10.1175 24.8343C9.40006 23.7327 8.92177 22.4868 8.68263 21.0966C8.47006 19.6802 8.56306 18.2376 8.96163 16.7688C9.38677 15.195 9.99791 13.9229 10.7951 12.9524C11.6188 11.9557 12.5886 11.195 13.7046 10.6704ZM14.9003 15.9425C14.5018 16.3098 14.1962 16.7688 13.9836 17.3196C13.7711 17.8704 13.6382 18.4475 13.5851 19.0507C13.5319 19.6278 13.5718 20.2179 13.7046 20.8212C13.8641 21.3983 14.1032 21.9229 14.4221 22.395C14.6878 22.7884 15.1661 23.1163 15.8569 23.3786C16.5478 23.6409 17.2652 23.7983 18.0092 23.8507C18.8595 23.9032 19.6035 23.6802 20.2412 23.1819C20.8789 22.6573 21.3572 22.0147 21.6761 21.254C22.0215 20.4934 22.1809 19.6671 22.1543 18.7753C22.1278 17.8835 21.8886 17.0704 21.4369 16.336C21.1181 15.8114 20.6663 15.4311 20.0818 15.195C19.5238 14.9327 18.9259 14.8016 18.2882 14.8016C17.6771 14.7753 17.0659 14.8671 16.4548 15.077C15.8436 15.2606 15.3255 15.5491 14.9003 15.9425ZM35.8129 10.6704C36.6897 10.2507 37.6065 9.9491 38.563 9.76549C39.5196 9.58188 40.4629 9.54254 41.3929 9.64746C42.3495 9.75237 43.2662 10.0016 44.143 10.395C45.0465 10.7884 45.8702 11.3393 46.6142 12.0475C47.2253 12.6507 47.7567 13.3852 48.2085 14.2507C48.6602 15.0901 48.9923 15.9163 49.2049 16.7294C49.6566 18.172 49.723 19.6278 49.4042 21.0966C49.0853 22.5655 48.5406 23.9294 47.77 25.1884C47.398 25.7655 46.933 26.2901 46.375 26.7622C45.8436 27.2081 45.2723 27.5753 44.6612 27.8638C43.864 28.2311 43.0005 28.4802 42.0705 28.6114C41.1405 28.7688 40.237 28.8081 39.3602 28.7294C37.7659 28.6507 36.3576 28.2573 35.1353 27.5491C33.9396 26.8409 32.9697 25.936 32.2257 24.8343C31.5083 23.7327 31.03 22.4868 30.7909 21.0966C30.5783 19.6802 30.6713 18.2376 31.0699 16.7688C31.495 15.195 32.1062 13.9229 32.9033 12.9524C33.727 11.9557 34.6969 11.195 35.8129 10.6704ZM37.0086 15.9425C36.61 16.3098 36.3045 16.7688 36.0919 17.3196C35.8793 17.8704 35.7465 18.4475 35.6933 19.0507C35.6402 19.6278 35.68 20.2179 35.8129 20.8212C35.9723 21.3983 36.2115 21.9229 36.5303 22.395C36.796 22.7884 37.2743 23.1163 37.9652 23.3786C38.656 23.6409 39.3735 23.7983 40.1175 23.8507C40.9678 23.9032 41.7118 23.6802 42.3495 23.1819C42.9872 22.6573 43.4655 22.0147 43.7843 21.254C44.1297 20.4934 44.2892 19.6671 44.2626 18.7753C44.236 17.8835 43.9969 17.0704 43.5452 16.336C43.2263 15.8114 42.7746 15.4311 42.19 15.195C41.632 14.9327 41.0342 14.8016 40.3965 14.8016C39.7853 14.7753 39.1742 14.8671 38.563 15.077C37.9519 15.2606 37.4337 15.5491 37.0086 15.9425Z" fill="#832FEF"/>
<path d="M62.5 26C66.6421 26 70 22.6421 70 18.5C70 14.3579 66.6421 11 62.5 11C58.3579 11 55 14.3579 55 18.5C55 22.6421 58.3579 26 62.5 26Z" stroke="#832FEF" stroke-width="4"/>
<path d="M53.845 33.2118L58.5812 27.4195C59.3057 26.5335 59.1021 25.185 58.1264 24.4076L58.1264 24.4076C57.1508 23.6302 55.7725 23.7183 55.048 24.6044L50.3117 30.3967C49.5872 31.2827 49.7908 32.6312 50.7665 33.4086L50.7665 33.4086C51.7422 34.186 53.1204 34.0979 53.845 33.2118Z" fill="#832FEF"/>
<path d="M83.9794 18.9639C84.564 19.5672 84.9891 20.0131 85.2549 20.3016C85.5471 20.5639 85.7464 20.7607 85.8527 20.8918C85.9856 21.0229 86.0786 21.1016 86.1317 21.1279C86.1849 21.1541 86.2779 21.2328 86.4107 21.3639C86.5436 21.4951 86.7561 21.7049 87.0484 21.9934C87.3407 22.2557 87.7791 22.6885 88.3637 23.2918C88.842 23.7639 89.2273 24.3148 89.5196 24.9443C89.8384 25.5475 89.8118 26.2033 89.4398 26.9115C89.2273 27.2787 88.9881 27.541 88.7224 27.6984C88.4567 27.8295 88.1644 27.882 87.8456 27.8557C87.5533 27.8295 87.2344 27.7377 86.889 27.5803C86.5701 27.4229 86.2513 27.2262 85.9324 26.9902C85.3213 26.5443 84.7367 26.0328 84.1787 25.4557C83.6207 24.8525 83.169 24.3934 82.8236 24.0787C82.5844 23.8426 82.4383 23.6852 82.3851 23.6066C82.332 23.5541 82.2789 23.5148 82.2257 23.4885C82.1726 23.4361 82.1194 23.3836 82.0663 23.3311C81.8803 23.1475 81.681 22.9639 81.4684 22.7803C81.2559 22.5967 81.0433 22.4 80.8307 22.1902V23.7246C80.8307 24.0131 80.844 24.2229 80.8706 24.3541C80.8706 24.6164 80.8573 24.8131 80.8307 24.9443C80.751 25.2328 80.7111 25.5082 80.7111 25.7705C80.6846 25.9016 80.658 26.0328 80.6314 26.1639C80.6049 26.2689 80.565 26.3869 80.5119 26.518C80.4853 26.5705 80.4587 26.6098 80.4321 26.6361C80.4321 26.6623 80.4321 26.7016 80.4321 26.7541C80.4056 26.8066 80.379 26.8459 80.3524 26.8721C80.3524 26.8984 80.3391 26.9377 80.3126 26.9902C80.1797 27.2525 79.9671 27.5016 79.6749 27.7377C79.17 28.0262 78.5456 28.1049 77.8016 27.9738C77.403 27.8951 77.0974 27.7508 76.8849 27.541C76.6457 27.3836 76.4863 27.1607 76.4066 26.8721C76.3534 26.741 76.3003 26.6098 76.2471 26.4787C76.2206 26.3213 76.1807 26.177 76.1276 26.0459C76.0744 25.9148 76.0479 25.7967 76.0479 25.6918C76.0479 25.5607 76.0479 25.4557 76.0479 25.377V2.99016C76.0479 2.83279 76.0479 2.67541 76.0479 2.51803C76.0479 2.36066 76.0611 2.20328 76.0877 2.0459C76.1143 1.88852 76.1409 1.74426 76.1674 1.61311C76.2206 1.45574 76.2737 1.31148 76.3269 1.18033C76.4331 0.918032 76.566 0.708197 76.7254 0.55082C76.8583 0.419672 76.9911 0.327868 77.124 0.275409C77.2834 0.196721 77.4296 0.131147 77.5624 0.0786883C77.6953 0.0524588 77.8414 0.0393438 78.0009 0.0393438C78.1869 0.0131142 78.3596 0 78.519 0C78.891 0 79.263 0.104918 79.635 0.314754C79.9804 0.55082 80.2329 0.852459 80.3923 1.21967C80.6049 1.71803 80.7111 2.20328 80.7111 2.67541C80.7377 2.9377 80.7643 3.34426 80.7909 3.89508C80.8174 4.41967 80.8307 4.81312 80.8307 5.07541V5.23279C80.8573 6.09836 80.8706 6.92459 80.8706 7.71148C80.8706 8.49836 80.8706 9.35082 80.8706 10.2689C80.844 11.1869 80.8307 12.0656 80.8307 12.9049C80.8307 13.718 80.8307 14.5311 80.8307 15.3443V15.7771C81.0433 15.5672 81.2559 15.3705 81.4684 15.1869C81.681 15.0033 81.8803 14.8066 82.0663 14.5967C82.1726 14.518 82.2789 14.4262 82.3851 14.3213L82.8236 13.8885C83.169 13.5475 83.6207 13.0885 84.1787 12.5115C84.7367 11.9082 85.3213 11.3836 85.9324 10.9377C86.5967 10.4656 87.2344 10.177 87.8456 10.0721C88.4833 9.96721 89.0147 10.282 89.4398 11.0164C89.8118 11.7246 89.8384 12.3934 89.5196 13.023C89.2273 13.6262 88.842 14.1902 88.3637 14.7148C87.7791 15.318 87.3407 15.7639 87.0484 16.0525C86.7561 16.3148 86.5436 16.5115 86.4107 16.6426C86.2779 16.7475 86.1849 16.8131 86.1317 16.8393C86.0786 16.8656 85.9856 16.9443 85.8527 17.0754C85.7464 17.1803 85.5471 17.377 85.2549 17.6656C84.9891 17.9279 84.564 18.3607 83.9794 18.9639Z" fill="#832FEF"/>
</svg>
